<?xml version="1.0" encoding="utf-8"?>
<!-- Generator: Adobe Illustrator 16.0.3, SVG Export Plug-In . SVG Version: 6.00 Build 0)  -->
<svg version="1.1" id="Aboitiz_Equity_Ventures_logo"
	 xmlns="http://www.w3.org/2000/svg" xmlns:xlink="http://www.w3.org/1999/xlink" x="0px" y="0px" width="820px" height="313.22px"
	 viewBox="0 0 820 313.22" enable-background="new 0 0 820 313.22" xml:space="preserve">
<path fill="#24231F" d="M247.5,229c0,0,22.088,0.004,33.122-0.011c0.376,0.015,0.953-0.127,0.996,0.432
	c0.221,1.769,0.03,3.581,0.237,5.359c0.217,1.353,0.139,2.727,0.182,4.093c-7.365-0.005-14.731,0.016-22.096-0.013
	c0.024,4.237,0.024,8.475-0.002,12.709c6.274-0.03,12.546,0.021,18.817-0.022c0.039,2.966,0.031,5.935,0.003,8.9
	c-6.031-0.019-12.06,0.034-18.09-0.025c-0.331,1.194-0.269,10.045-0.11,13.228c6.771-0.013,13.543,0.004,20.318-0.009
	c0.452-0.012,0.903,0.065,1.35,0.153c-0.06,3.639-0.013,7.278-0.022,10.914c-11.376,0.013-34.705,0.013-34.705,0.013V229z
	 M315.499,243.302c0.092-0.075,0.273-0.229,0.366-0.303c2.955-0.053,5.92-0.057,8.877-0.034c0.548,0.038,0.325,0.746,0.389,1.108
	c-0.019,18.844,0.002,37.692-0.009,56.536c0.133,0.493-0.307,0.847-0.767,0.83c-3.583,0.188-7.125,0.755-10.711,0.863
	c-0.007-7.006,0.018-14.012-0.011-21.018c-0.918,0.212-1.64,0.84-2.464,1.255c-2.446,1.319-5.196,2.166-7.994,2.024
	c-2.793,0.115-5.585-0.819-7.797-2.511c-1.656-1.249-2.798-3.088-3.381-5.063c-2.436-7.296-3.225-15.464-0.568-22.813
	c0.8-2.006,1.646-4.159,3.419-5.509c2.011-1.808,4.37-3.256,6.983-3.996c1.978-0.666,4.097-0.554,6.153-0.505
	c2.645,0.08,5.09,1.188,7.489,2.202C315.477,245.345,315.423,244.32,315.499,243.302 M301.528,256.554
	c-1.073,3.075-0.709,6.4-0.47,9.58c0.344,1.728,0.327,3.548,0.993,5.2c0.841,1.497,1.927,2.998,3.54,3.718
	c1.46,0.641,3.207,0.344,4.527-0.499c1.609-1.006,3.029-2.372,4.035-3.983c0.139-1.559,0.015-3.135,0.056-4.699
	c-0.015-3.896,0.032-7.793-0.025-11.689c-2.564-0.761-5.21-1.662-7.93-1.223C304.221,253.259,302.2,254.533,301.528,256.554z
	 M335.711,243.746c3.632,0.012,7.264-0.084,10.896-0.104c0.06,4.54-0.188,9.069-0.145,13.609c0.008,5.191-0.106,10.39-0.021,15.576
	c0.871,1.486,2.257,2.779,3.944,3.26c2.202,0.486,4.273-0.859,5.785-2.334c1.069-1.102,2.163-2.264,2.826-3.662
	c0.075-8.813,0.002-17.634,0.037-26.451c3.733-0.021,7.47-0.021,11.204,0.002c0.004,13.451,0.004,26.903,0,40.354
	c-3.487-0.016-6.972-0.006-10.454-0.006c-0.01-1.552-0.067-3.104,0.015-4.652c-1.063,1.432-2.609,2.45-4.187,3.248
	c-2.447,1.116-5.143,1.687-7.83,1.699c-2.628,0.333-5.451,0.361-7.853-0.914c-2.677-1.366-4.37-4.377-4.255-7.364
	C335.703,265.253,335.632,254.498,335.711,243.746z M379.874,243.474c3.771,0.026,7.544-0.008,11.314,0.019
	c-0.002,13.486-0.024,26.979,0.013,40.466c-3.783,0.059-7.568,0.008-11.35,0.026C379.874,270.481,379.829,256.977,379.874,243.474z
	 M383.856,222.585c3.456-0.809,7.28,1.449,8.215,4.881c0.413,1.748,0.376,3.716-0.542,5.309c-1.151,2.268-3.669,3.832-6.233,3.641
	c-3.691,0.262-7.012-3.153-6.969-6.785C378.142,226.35,380.672,223.255,383.856,222.585z M410.389,233.981
	c1.35,0.034,2.699-0.346,4.053-0.153c0.614,0.298,0.364,1.069,0.444,1.617c-0.062,2.581,0.186,5.153,0.194,7.734
	c3.345-0.054,6.692-0.033,10.04-0.015c0.534,2.572,0.272,5.227,0.37,7.838c-3.447-0.036-6.899-0.028-10.347-0.004
	c-0.22,1.398-0.041,2.822-0.14,4.229c-0.262,1.928-0.137,3.881-0.229,5.821c-0.391,2.532-0.09,5.106-0.387,7.65
	c-0.026,1.699-0.202,3.448,0.28,5.108c0.313,1.024,1.022,2.041,2.106,2.327c1.862,0.317,3.604-0.622,5.161-1.525
	c1.262-0.716,2.301-1.751,3.563-2.467c0.024,3.155,0.084,6.315-0.022,9.469c-2.446,1.26-5.031,2.262-7.689,2.967
	c-2.482,0.626-5.114,1.028-7.634,0.385c-2.804-0.51-4.957-2.856-5.808-5.493c-0.832-2.169-0.654-4.511-0.691-6.785
	c0.022-1.012-0.262-2-0.217-3.012c0.002-5.076-0.333-10.137-0.341-15.211c0.051-0.969-0.346-1.959,0.008-2.903
	c-2.221-0.342-4.475-0.11-6.707-0.182c0.118-2.256,0.188-4.538-0.078-6.783c2.488-0.528,5.071-0.282,7.581-0.68
	c0.533-2.548,0.836-5.137,1.282-7.701c0.151-0.724,0.021-1.619,0.582-2.176C407.303,234.008,408.845,233.995,410.389,233.981z
	 M459.99,243.437c3.572-0.057,7.148-0.004,10.726-0.028c0.402,0.039,0.867-0.098,1.243,0.135c-0.06,0.931-0.523,1.757-0.863,2.605
	c-5.995,14.542-11.997,29.077-17.995,43.619c-1.009,2.303-1.718,4.817-3.454,6.713c-2.617,2.929-6.28,4.697-9.978,5.847
	c-1.357,0.409-2.738,0.794-4.157,0.894c-0.37-3.219-0.838-6.433-0.994-9.674c2.136,0.104,4.358-0.45,5.983-1.896
	c2.101-1.867,3.325-4.513,4.117-7.165c0.258-0.908,0.605-1.908,0.217-2.828c-4.888-12.123-9.738-24.258-14.617-36.384
	c-0.174-0.428-0.237-0.888-0.301-1.34c1.434-0.022,2.869-0.014,4.296-0.189c2.536,0.034,5.074-0.078,7.607-0.019
	c0.401,0.566,0.518,1.266,0.74,1.912c2.602,8.139,5.217,16.27,7.808,24.41c0.084-0.022,0.252-0.067,0.334-0.092
	c0.081-0.955,0.492-1.828,0.803-2.72C454.335,259.306,457.147,251.365,459.99,243.437z M530.656,229
	c4.012,0.002,8.024,0.004,12.036-0.005c-0.153,1.42-20.361,53.077-20.823,53.901c-1.497,0.196-3.017,0.012-4.514,0.149
	c-1.625,0.286-3.277,0.108-4.914,0.194c-1.494-3.422-21.025-52.936-21.343-54.186c3.847-0.08,7.697-0.006,11.548-0.039
	c0.559,0.041,1.448-0.186,1.546,0.607c4.309,12.376,8.607,24.759,12.901,37.139C518.462,263.455,527.333,238.214,530.656,229z
	 M552.943,243.102c2.957-1.149,6.202-1.108,9.307-0.734c4.032,0.013,8.077,1.867,10.535,5.099c2.27,2.924,3.458,6.525,4.116,10.126
	c0.516,2.512,0.475,5.09,0.442,7.643c-7.706-0.002-15.411,0.006-23.116-0.002c-0.086,2.604-0.054,5.423,1.513,7.647
	c0.964,1.583,2.771,2.272,4.436,2.863c2.722,0.798,5.544-0.028,8.194-0.729c2.753-0.776,5.314-2.067,7.957-3.133
	c0.008,2.818,0.073,5.639-0.026,8.45c-2.706,2.454-6.45,3.342-9.981,3.806c-2.456,0.362-4.938,0.354-7.413,0.307
	c-2.424-0.213-4.935-0.159-7.213-1.135c-2.894-1.187-4.991-3.691-6.406-6.403c-1.902-3.744-2.851-7.911-3.203-12.077
	c-0.096-5.233,0.566-10.699,3.231-15.305C546.999,246.572,549.719,244.223,552.943,243.102 M555.658,252.463
	c-1.465,1.761-2.013,4.14-1.908,6.393c4.051-0.032,8.104-0.047,12.153,0.013c0.137-1.927-0.056-3.918-0.943-5.658
	c-0.69-1.439-2.108-2.607-3.748-2.667C559.235,250.554,557.034,250.899,555.658,252.463z M601.054,243.604
	c2.867-1.215,6.004-1.292,9.067-1.458c1.877-0.084,3.815,0.088,5.52,0.953c2.928,1.346,4.654,4.652,4.537,7.806
	c0.006,10.597-0.026,21.195,0.015,31.793c-1.587,0.165-3.185-0.013-4.763,0.198c-2.08,0.082-4.161,0.008-6.237,0.086
	c0.002-3.845,0.011-7.689,0.051-11.536c0.033-2.024-0.116-4.059,0.168-6.071c-0.008-3.922,0.065-7.845,0.026-11.765
	c-0.942-0.983-1.791-2.098-3.008-2.761c-1.174-0.685-2.658-0.623-3.871-0.084c-2.069,0.878-3.63,2.594-4.959,4.35
	c-0.344,0.497-0.812,1.002-0.763,1.648c-0.004,8.738,0.013,17.479-0.008,26.219c-3.742-0.011-7.48-0.009-11.219,0
	c-0.039-13.454-0.019-26.905-0.011-40.359c3.482-0.01,6.968-0.03,10.45,0.01c-0.022,1.434,0.014,2.871-0.007,4.307
	C597.512,245.56,599.136,244.296,601.054,243.604z M640.799,233.253c1.693,0.049,3.389-0.352,5.082-0.084
	c0.288,1.732,0.076,3.559,0.18,5.327c-0.102,1.312,0.299,2.63-0.008,3.927c3.438,0.065,6.879-0.065,10.316,0.071
	c-0.084,2.572,0.508,5.147,0.181,7.712c-3.44,0.135-6.892,0.049-10.336,0.041c-0.026,1.576-0.219,3.143-0.188,4.724
	c-0.084,1.858,0.045,3.731-0.254,5.574c-0.131,3.8-0.131,7.604-0.114,11.407c-0.041,1.051,0.35,2.139,1.092,2.894
	c0.834,0.824,2.114,0.619,3.174,0.509c2.017-0.552,3.8-1.74,5.421-3.035c0.379-0.322,0.814-0.56,1.284-0.746
	c0.029,3.088,0.05,6.18-0.004,9.266c-0.769,0.646-1.755,0.929-2.648,1.34c-3.296,1.355-6.785,2.546-10.398,2.37
	c-1.963,0.069-3.953-0.548-5.477-1.798c-2.345-1.912-3.337-5.069-3.277-8.012c-0.076-2.076,0.032-4.162-0.219-6.226
	c-0.162-4.599-0.334-9.195-0.36-13.801c-0.137-1.297-0.243-2.598-0.209-3.902c-1.808,0.017-3.615-0.008-5.419,0.009
	c-0.423-0.009-0.935,0.11-1.11-0.383c-0.024-2.124-0.032-4.251,0.004-6.378c0.323-0.432,0.884-0.301,1.358-0.34
	c1.436-0.021,2.873-0.077,4.314-0.092c0.708-0.021,1.448,0.043,2.135-0.2c0.385-0.828,0.235-1.789,0.473-2.66
	c0.14-2.115,0.553-4.198,0.669-6.312c0.116-0.38-0.002-1.026,0.518-1.12C638.247,233.257,639.522,233.288,640.799,233.253z
	 M687.323,242.541c0.341-0.376,0.892-0.314,1.361-0.327c2.282,0.013,4.566,0.006,6.851,0.006c1.026,0.011,2.065-0.067,3.084,0.138
	c0.116,5.894,0.019,11.791,0.051,17.685c-0.002,7.266,0.002,14.531-0.002,21.799c0.029,0.344-0.079,0.643-0.316,0.892
	c-2.968,0.054-5.935-0.004-8.9,0.027c-0.439-0.023-0.894,0.042-1.3-0.109c-0.123-1.398-0.007-2.799-0.076-4.191
	c-0.92,1.57-2.237,2.944-3.916,3.693c-2.554,1.165-5.466,1.316-8.202,0.838c-2.839,0.028-5.74-0.72-8.045-2.417
	c-1.853-1.473-3.47-3.464-3.942-5.82c-0.052-10.69,0.024-21.378-0.039-32.066c1.032-0.37,2.139-0.198,3.217-0.247
	c2.593-0.017,5.186-0.091,7.781-0.065c0.018,9.61-0.106,19.216-0.078,28.825c-0.069,0.658,0.48,1.101,0.847,1.574
	c0.963,1.142,2.313,2.127,3.873,2.112c2.36,0.097,4.28-1.601,5.796-3.219c0.699-0.881,1.578-1.72,1.922-2.812
	C687.345,260.087,687.275,251.313,687.323,242.541z M725.245,242.328c0.436-0.282,0.89-0.638,1.45-0.609
	c1.777-0.008,3.557-0.008,5.337-0.006c0.336-0.041,0.624,0.063,0.874,0.313c-0.368,3.104-0.96,6.186-1.274,9.3
	c-0.873,0.252-1.779,0.135-2.662,0.205c-0.269-0.34-0.536-0.673-0.745-1.035c-1.683-0.188-3.329,0.192-4.948,0.568
	c-1.826,0.667-3.389,1.972-4.505,3.546c-0.36,0.826-0.176,1.763-0.228,2.643c-0.022,2.957-0.082,5.914-0.094,8.871
	c0.043,1.357-0.293,2.69-0.2,4.049c-0.123,3.636,0.051,7.286-0.246,10.914c-0.012,0.505-0.006,1.008,0.007,1.517
	c-3.477,0.269-6.979,0.149-10.469,0.215c0.019-13.554-0.012-27.107,0.017-40.659c3.518,0.043,7.039,0.022,10.561,0.01
	c0.112,1.73,0.153,3.473,0.108,5.209C720.385,245.466,722.873,243.96,725.245,242.328z M743.027,245.437
	c3.116-3.171,7.728-4.396,12.071-4.2c1.691,0.149,3.378,0.327,5.075,0.477c2.882,0.505,5.57,2.031,7.485,4.247
	c2.647,3.052,3.956,7.017,4.656,10.937c0.273,2.054,0.533,4.11,0.48,6.188c-0.082,0.425,0.223,1.271-0.495,1.151
	c-7.561,0.047-15.122-0.035-22.685,0.043c-0.051,2.141-0.144,4.372,0.777,6.368c0.627,1.492,1.791,2.797,3.292,3.447
	c1.243,0.546,2.546,1.099,3.937,1.035c3.321-0.002,6.538-1.063,9.605-2.254c1.535-0.568,2.961-1.396,4.509-1.937
	c0.043,2.538,0.008,5.077,0.024,7.617c-0.047,0.368,0.088,0.871-0.292,1.108c-1.779,1.444-3.949,2.307-6.147,2.884
	c-3.409,0.916-6.963,1.036-10.47,0.94c-2.287,0-4.563-0.266-6.813-0.638c-2.458-0.54-4.748-1.88-6.352-3.832
	c-2.257-2.704-3.451-6.14-4.038-9.571c-0.641-3.088-0.465-6.268-0.389-9.4C737.677,254.795,739.059,249.179,743.027,245.437
	 M751.644,251.005c-1.979,1.667-2.609,4.42-2.55,6.904c4.077-0.039,8.157-0.021,12.237-0.006c0.032-2.164-0.201-4.438-1.387-6.299
	c-0.996-1.561-3.017-2.323-4.798-1.899C753.891,249.819,752.601,250.152,751.644,251.005z M783.158,245.27
	c2.021-1.996,4.703-3.185,7.441-3.82c5.09-0.527,10.192,0.344,15.125,1.579c0.329,0.146,0.8,0.122,1.024,0.479
	c-0.024,1.537-0.021,3.085-0.243,4.613c-0.155,1.509,0.055,3.057-0.321,4.539c-1.968-1.189-4.274-1.606-6.466-2.184
	c-1.497-0.337-2.986-0.688-4.482-1.012c-1.285-0.272-2.841-0.252-3.8,0.774c-0.749,0.686-0.534,1.814-0.413,2.706
	c0.294,0.946,0.591,2.096,1.587,2.539c2.687,1.407,5.48,2.605,8.262,3.822c1.656,0.753,3.46,1.325,4.806,2.617
	c1.905,1.585,3.494,3.659,4.086,6.104c0.597,2.669,0.03,5.499-1.301,7.865c-2.127,3.593-5.441,6.599-9.501,7.781
	c-5.71,1.737-11.865,0.438-17.227-1.843c-0.55-0.286-1.434-0.458-1.362-1.245c-0.026-2.452,0.008-4.908-0.01-7.362
	c0.012-0.929-0.106-1.89,0.245-2.771c4.133,3.4,9.826,5.047,15.079,3.722c1.284-0.35,2.71-0.568,3.749-1.469
	c0.454-0.38,0.482-1.047,0.318-1.572c-0.623-1.268-1.854-2.049-2.985-2.806c-1.331-0.933-3.006-0.994-4.49-1.534
	c-4.125-1.284-8.201-3.562-10.527-7.32C778.926,255.165,779.455,248.909,783.158,245.27z"/>
<path fill="#F41729" d="M75.813,50.698c1.425-0.253,2.892-0.01,4.313-0.325c3.877-0.288,7.738,0.19,11.601,0.454
	c6.785,0.842,13.529,2.388,19.828,5.085c3.76,1.508,7.376,3.355,10.854,5.428c1.169,0.672,2.235,1.542,3.499,2.046
	c0.131-0.593,0.207-1.199,0.196-1.805c-0.021-2.223,0.008-4.444-0.013-6.664c8.755-0.144,17.513-0.022,26.271-0.063
	c1.904,0.05,3.816-0.106,5.716,0.1c-0.039,27.977-0.006,55.954-0.016,83.932c0.01,18.416-0.023,36.833,0.016,55.249
	c-1.053,0.183-2.123,0.101-3.182,0.117c-9.464-0.024-18.93,0.045-28.392-0.035c-0.102-0.073-0.302-0.221-0.403-0.294
	c-0.03-2.783-0.02-5.573-0.006-8.354c-1.286,0.63-2.382,1.58-3.642,2.262c-6.871,4.286-14.484,7.357-22.384,9.143
	c-3.429,0.568-6.84,1.342-10.331,1.417c-2.004,0.336-4.042,0.231-6.065,0.243c-1.604-0.006-3.223,0.056-4.81-0.23
	c-5.808-0.309-11.538-1.536-17.1-3.219c-2.235-0.495-4.325-1.442-6.432-2.312c-8.114-3.376-15.607-8.236-22.018-14.247
	c-2.242-1.907-4.123-4.186-6.058-6.39c-6.458-7.596-11.225-16.572-14.196-26.073c-1.36-4.432-2.207-9.006-2.716-13.609
	c-0.008-1.527-0.405-3.023-0.317-4.558c0.053-3.274-0.215-6.577,0.26-9.826c0.135-2.76,0.62-5.495,1.119-8.21
	c0.56-2.529,1.045-5.092,2.012-7.505c0.824-2.993,1.978-5.889,3.239-8.722c2.162-4.604,4.622-9.089,7.642-13.188
	c7.204-9.915,16.854-18.099,27.975-23.301c1.164-0.587,2.362-1.107,3.597-1.527c1.251-0.437,2.423-1.067,3.673-1.513
	C64.807,52.406,70.279,51.23,75.813,50.698 M83.895,83.032c-22.458,0-40.664,18.598-40.664,41.54
	c0,22.941,18.206,41.539,40.664,41.539c22.459,0,40.664-18.598,40.664-41.539C124.559,101.63,106.354,83.032,83.895,83.032z
	 M175.77,11.628c-0.09-0.511,0.507-0.735,0.92-0.656c10.143,0.003,20.288-0.012,30.431,0.008c0.494-0.077,0.705,0.52,0.644,0.915
	c0.009,17.221,0.011,34.44-0.002,51.658c0.673-0.219,1.256-0.628,1.832-1.031c8.493-5.603,18.206-9.254,28.223-10.955
	c4.419-0.796,8.908-1.131,13.396-1.069c8.47-0.106,16.899,1.579,24.868,4.399c9.734,3.693,18.732,9.43,25.983,16.914
	c7.194,7.087,12.726,15.786,16.475,25.141c1.083,3.067,2.081,6.164,2.95,9.297c0.587,2.761,1.246,5.511,1.607,8.309
	c0.095,2.035,0.589,4.035,0.546,6.081c0.013,2.958,0.024,5.918-0.008,8.876c-0.446,6.415-1.609,12.803-3.732,18.886
	c-0.501,1.326-0.799,2.723-1.4,4.01c-0.843,1.719-1.396,3.566-2.342,5.237c-3.077,6.247-7.09,12.024-11.819,17.128
	c-1.591,1.62-3.19,3.231-4.834,4.798c-5.521,4.953-11.777,9.096-18.51,12.212c-2.484,1.056-4.918,2.267-7.55,2.921
	c-4.735,1.656-9.675,2.701-14.634,3.389c-2.875,0.165-5.726,0.675-8.615,0.539c-2.815,0.104-5.617-0.145-8.415-0.415
	c-5.722-0.494-11.286-2.049-16.754-3.742c-5.646-2.114-11.065-4.862-16.069-8.227c-0.409-0.235-0.826-0.448-1.223-0.701
	c0.09,2.815-0.037,5.636,0.069,8.453c-0.867,0.356-1.815,0.233-2.724,0.254c-9.299-0.008-18.595,0-27.889-0.006
	c-0.499,0.006-0.981-0.121-1.458-0.241c0.062-27.245,0.01-54.492,0.024-81.737C175.768,78.724,175.758,45.175,175.77,11.628
	 M249.895,83.032c-22.458,0-40.664,18.598-40.664,41.54c0,22.941,18.206,41.539,40.664,41.539c22.459,0,40.664-18.598,40.664-41.539
	C290.559,101.63,272.354,83.032,249.895,83.032z M482.3,124.572c0,40.874-33.123,74-74,74c-40.876,0-74-33.126-74-74
	c0-40.875,33.124-74,74-74C449.177,50.572,482.3,83.697,482.3,124.572z M408.3,83.032c-22.458,0-40.664,18.598-40.664,41.54
	c0,22.941,18.206,41.539,40.664,41.539c22.459,0,40.664-18.598,40.664-41.539C448.964,101.63,430.759,83.032,408.3,83.032z
	 M677.386,54.863h-33.715v139.4h33.715V54.863z M559.003,11.628c-0.108-0.529,0.506-0.72,0.921-0.656
	c10.656-0.002,21.313-0.002,31.967,0c0.611-0.058,0.611,0.746,0.601,1.177c-0.036,14.196,0.039,28.395-0.041,42.591
	c2.072,0.269,4.176,0.056,6.262,0.122c10.172,0.016,20.339-0.033,30.511,0.026c-0.021,9.945-0.022,19.894,0,29.843
	c-12.26-0.018-24.519-0.005-36.776-0.008c0.099,17.03-0.008,34.063,0.054,51.094c0.361,5.711,1.391,11.588,4.433,16.54
	c1.933,2.991,4.639,5.523,7.859,7.074c3.989,2.143,8.468,3.172,12.926,3.767c3.834,0.43,7.688,0.761,11.552,0.617
	c0.299,1.559,0.176,3.147,0.196,4.727c0.005,8.617-0.004,17.236,0.007,25.856c0.004,0.615-0.074,1.23-0.17,1.842
	c-1.493,0.119-2.994,0.015-4.484,0.035c-1.52,0.034-3.017-0.305-4.534-0.223c-7.075-0.52-14.159-1.53-20.981-3.536
	c-7.069-2.172-13.928-5.271-19.809-9.81c-6.521-4.94-11.624-11.646-14.914-19.12c-3.272-7.816-5.065-16.232-5.379-24.685
	c-0.357-2.186-0.146-4.406-0.202-6.608c0.024-15.85-0.049-31.701,0.037-47.55c-3.673-0.025-7.348-0.006-11.017-0.011
	c-1.793-0.058-3.599,0.147-5.372-0.159c-0.141-9.522-0.022-19.053-0.062-28.579c-0.057-0.521,0.22-1.229,0.863-1.135
	c4.309-0.012,8.622-0.003,12.935-0.003c0.884-0.012,1.789,0.077,2.669-0.119c-0.123-6.588-0.019-13.183-0.054-19.771
	C559.003,27.187,558.993,19.408,559.003,11.628z M528.858,54.863h-33.715v139.4h33.715V54.863z M690.792,54.915
	c0,0,85.185-0.061,118.309-0.058c0.552-0.129,0.753,0.434,0.689,0.884c-0.002,9.386,0,18.774-0.002,28.163
	c0.094,0.809-0.53,1.389-0.988,1.961c-11.12,11.865-72.939,78.727-72.939,78.727s48.999-0.008,73.5-0.021
	c0.48-0.09,0.628,0.55,0.595,0.923c-0.006,9.294,0.002,18.595-0.002,27.889c0.088,0.513-0.355,0.967-0.865,0.86
	c-39.035,0.017-78.073,0.005-117.109,0.009c-0.475,0.004-0.929-0.078-1.372-0.176c0.083-7.837-0.048-29.642-0.048-29.642
	l74.78-79.717l-74.581-0.14L690.792,54.915z"/>
<circle fill="#24231F" cx="511.994" cy="27.64" r="17.641"/>
<rect x="643.671" y="10.784" fill="#24231F" width="33.715" height="33.715"/>
</svg>
