<?xml version="1.0" encoding="utf-8"?>
<!-- Generator: Adobe Illustrator 16.0.0, SVG Export Plug-In . SVG Version: 6.00 Build 0)  -->
<!DOCTYPE svg PUBLIC "-//W3C//DTD SVG 1.1//EN" "http://www.w3.org/Graphics/SVG/1.1/DTD/svg11.dtd">
<svg version="1.1" id="Layer_1" xmlns="http://www.w3.org/2000/svg" xmlns:xlink="http://www.w3.org/1999/xlink" x="0px" y="0px"
	 width="512px" height="512px" viewBox="0 0 512 512" enable-background="new 0 0 512 512" xml:space="preserve">
<g id="Layer_1_1_" display="none">
	<g display="inline">
		<g>
			<defs>
				<rect id="SVGID_1_" width="512" height="512"/>
			</defs>
			<clipPath id="SVGID_2_">
				<use xlink:href="#SVGID_1_"  overflow="visible"/>
			</clipPath>
			<g clip-path="url(#SVGID_2_)">
				<rect x="439" opacity="0.4" fill="#FF5050" enable-background="new    " width="73" height="512"/>
				<rect opacity="0.4" fill="#FF5050" enable-background="new    " width="73" height="512"/>
				<rect x="73" opacity="0.1" fill="#FF5050" enable-background="new    " width="73" height="512"/>
				<rect y="73" opacity="0.1" fill="#FF5050" enable-background="new    " width="512" height="73"/>
				<rect x="366" opacity="0.1" fill="#FF5050" enable-background="new    " width="73" height="512"/>
				<rect y="366" opacity="0.1" fill="#FF5050" enable-background="new    " width="512" height="73"/>
				<rect x="-0.5" opacity="0.4" fill="#FF5050" enable-background="new    " width="512" height="73"/>
				<rect y="439" opacity="0.4" fill="#FF5050" enable-background="new    " width="512" height="73"/>
				<path fill="none" stroke="#FF4D4D" stroke-width="0.25" d="M73,0v512"/>
				<path fill="none" stroke="#FF4D4D" stroke-width="0.25" d="M146,0v512"/>
				<path fill="none" stroke="#FF4D4D" stroke-width="0.25" d="M219,0v512"/>
				<path fill="none" stroke="#FF4D4D" stroke-width="0.25" d="M292,0v512"/>
				<path fill="none" stroke="#FF4D4D" stroke-width="0.25" d="M366,0v512"/>
				<path fill="none" stroke="#FF4D4D" stroke-width="0.25" d="M439,0v512"/>
				<path fill="none" stroke="#FF4D4D" stroke-width="0.25" d="M512,73H0"/>
				<path fill="none" stroke="#FF4D4D" stroke-width="0.25" d="M512,146H0"/>
				<path fill="none" stroke="#FF4D4D" stroke-width="0.25" d="M512,219H0"/>
				<path fill="none" stroke="#FF4D4D" stroke-width="0.25" d="M512,292H0"/>
				<path fill="none" stroke="#FF4D4D" stroke-width="0.25" d="M512,366H0"/>
				<path fill="none" stroke="#FF4D4D" stroke-width="0.25" d="M512,439H0"/>
			</g>
		</g>
	</g>
</g>
<path fill="#333333" d="M96.926,209.341c7.771-10.584,20.766-14.47,32.825-17.819c6.162-1.742,11.254-2.814,17.818-2.814
	c5.627,0,11.254,1.34,16.747,2.412c5.627,1.072,11.254,2.01,16.211,4.957c3.215,1.876,6.966,2.947,10.048,4.957
	c1.072,0.67,4.823,1.608,4.287,3.215c-0.669,2.278-6.296,0.134-8.038,1.072c-1.875,0.938-4.421,2.813-6.565,2.143
	c-2.144-0.536-2.679-3.081-4.958-3.35c-3.617-0.401-4.287,3.484-7.904,3.216c-2.679-0.268-5.761-3.617-8.575-3.349
	c-2.545,0.133-5.359,2.947-7.234,4.421c-3.484,2.545-5.092-1.072-8.039-2.278c-1.742-0.67-2.545-0.938-4.422-0.938
	c-4.957,0-7.904,2.144-10.717,6.163c0.938-1.34-5.359-4.288-5.896-4.421c-2.679-0.67-5.359-1.875-8.039-1.875
	C107.645,204.787,102.821,205.054,96.926,209.341 M148.105,152.267c-1.339-1.741-2.948-1.071-5.091-0.938
	c-1.072,3.215-0.134,5.895,0.536,8.574c0.67,2.948,1.206,6.029,1.741,8.843c0.537,2.948,0.804,6.029,0.938,9.244
	c0.134,1.608,0.134,3.35-0.134,4.958c-0.268,1.339-1.206,2.278-1.474,3.617c2.68-0.134,5.627,0,8.307-0.134
	c0-1.34-0.938-2.68-1.206-4.02c-0.402-1.474-0.134-2.948-0.268-4.421c-0.268-2.545-0.938-4.957-1.206-7.636
	C149.445,164.326,148.507,158.431,148.105,152.267 M106.573,307.277c6.565,12.059,25.187,14.604,37.379,15.006
	c4.689,0.133,9.378-0.135,13.934-0.805c2.411-0.268,4.823-1.072,7.369-1.742c4.287-1.205,8.708-2.545,12.861-4.555
	c3.617-1.742,8.843-3.482,9.915-8.172c-2.01,3.215-17.953,1.34-20.365,0.268c-1.474-0.67-1.34-0.938-2.545,0.268
	c-3.751,3.752-10.584,4.824-15.541,4.02c-4.02-0.803-9.513-3.885-12.728-6.431c-1.206-0.938-0.67-1.474-2.412-0.67
	c-3.885,1.876-6.698,4.288-11.12,4.957c-4.689,0.804-8.977-0.134-14.202-2.411c-1.34-0.536-1.875-0.67-3.215-1.607L106.573,307.277z
	"/>
<path fill="#333333" d="M151.99,309.957c-1.607,0-3.215-0.268-4.689-0.67c-2.277-0.67-4.555-1.607-7.101-3.215
	c-0.402-0.269-2.679-2.278-4.019-3.351l-0.536-0.536c-1.474,0.67-2.813,1.608-4.153,2.546c-2.679,1.876-5.493,3.751-9.11,3.886
	c-3.082,0.135-6.297-0.402-10.048-1.475c-0.268-0.133-1.072-0.4-2.277-0.938c-1.339-0.535-3.349-1.205-4.019-1.474
	c0,0-0.268-0.133-0.402-0.401c-0.133-0.268-0.133-0.67,0-0.804c2.412-1.876,4.823-4.153,7.101-6.298
	c1.474-1.473,3.081-2.947,4.689-4.287c0.536-0.535,1.072-0.938,1.607-1.607l0.804-1.072c4.287-5.76,6.029-15.139,6.967-22.105
	c0.938-6.564,0.402-13.263-0.134-19.024c-0.938-10.718-4.421-18.489-10.45-23.848c-2.813-2.412-6.029-4.421-8.977-6.297l-1.34-0.803
	c-3.082-1.876-6.163-3.752-9.11-6.029c-0.268-0.268-0.402-0.67-0.402-1.072c0.536-1.875,8.44-4.421,8.575-4.421
	c1.474-0.268,2.947-0.402,4.689-0.402c2.009,0,4.019,0.134,5.895,0.268c4.555,0.402,7.503,2.412,10.584,4.555
	c1.072,0.804,2.278,1.607,3.483,2.278l0.135-0.134c0.401-0.537,0.67-1.072,0.938-1.608c0.401-0.803,0.804-1.741,1.608-2.411
	c1.742-1.742,3.885-2.144,5.493-2.412c0.67-0.134,1.206-0.134,1.742-0.134c3.082,0,4.958,1.206,7.369,2.814l1.206,0.803
	c0.938,0.67,1.875,0.938,2.546,0.938c1.206,0,1.875-0.804,2.813-2.277c1.072-1.475,2.412-3.216,4.689-3.484
	c2.412-0.268,4.421,0.938,6.163,2.01c1.339,0.804,2.545,1.608,3.751,1.608c0.938,0,2.01-0.536,3.082-1.608
	c1.34-1.34,2.545-2.277,3.885-2.277c0.938,0,1.876,0.536,3.082,1.607l0.268,0.268c2.411,2.278,3.081,2.948,6.029,1.34
	c2.278-1.206,5.226-2.01,7.637-2.01c4.153,0,6.699,2.144,6.833,5.761l-0.402,0.134l-0.67,0.268c-0.268,0.133-0.402,0.133-0.67,0.268
	c-3.349,1.072-12.995,6.431-13.933,7.235c-3.215,2.412-6.297,5.627-8.574,8.843c-8.843,12.594-8.709,30.545-5.762,42.202
	c1.474,6.029,3.484,13.131,7.101,19.828c1.608,2.948,3.484,5.628,5.493,8.174l0.268,0.268c4.958,5.895,6.029,6.162,6.296,6.431
	c0.134,0.134,0.269,0.269,0.402,0.536c0,0.402-0.402,0.67-0.67,0.803c-0.401,0.27-0.938,0.402-1.339,0.537
	c-0.402,0.133-0.804,0.133-1.34,0.268s-1.072,0.135-1.474,0.135c-2.277,0.133-4.421,0.268-6.698,0
	c-1.34-0.135-2.813-0.27-4.154-0.537c-1.607-0.268-5.091-1.071-7.101-2.143l-1.339,0.67c-2.01,1.34-5.627,2.947-6.163,3.081
	C156.01,309.555,154,309.957,151.99,309.957L151.99,309.957z M136.583,301.248c1.206,1.072,4.02,3.351,4.288,3.617
	c2.411,1.475,4.555,2.547,6.699,3.082c3.215,0.805,6.699,0.67,9.914-0.402c0.402-0.133,4.288-1.741,6.029-2.946l-0.402-0.805
	c-1.473-2.947-3.483-6.833-4.421-9.78c-0.268-0.67-0.401-1.206-0.669-1.741c-1.072-3.081-2.01-5.627-2.01-9.915v-3.751l8.709,23.312
	c0.268,0.402,0.401,0.938,0.536,1.34c0.669,0.938,4.287,2.01,7.369,2.546c5.091,0.938,9.78,0.938,13.397,0
	c-1.072-0.938-2.813-2.68-5.627-6.028l-0.269-0.27c-2.144-2.545-4.019-5.357-5.626-8.306c-3.618-6.698-5.627-13.933-7.234-20.097
	c-2.948-11.789-3.082-30.278,6.028-43.274c2.412-3.349,5.494-6.699,8.843-9.11c0.803-0.669,11.656-6.564,14.872-7.368
	c-0.537-3.082-3.082-3.751-5.225-3.751c-2.144,0-4.823,0.669-6.967,1.741c-3.752,2.01-5.091,0.804-7.637-1.474l-0.268-0.268
	c-0.804-0.805-1.474-1.207-2.144-1.207c-0.804,0-1.742,0.804-2.948,1.875c-1.34,1.34-2.679,1.876-4.019,1.876
	c-1.608,0-3.081-0.938-4.556-1.876c-1.607-1.071-3.215-2.144-5.225-1.875c-1.876,0.268-2.813,1.474-3.886,2.948
	c-1.071,1.34-2.143,2.813-3.885,2.813c-0.938,0-2.01-0.402-3.215-1.206l-1.206-0.804c-2.412-1.607-4.02-2.68-6.565-2.68
	c-0.536,0-0.938,0-1.474,0.135c-2.144,0.268-3.617,0.938-4.689,2.009c-0.535,0.536-0.938,1.34-1.34,2.01
	c-0.268,0.536-0.535,1.071-0.803,1.474c2.947,4.823,4.689,10.45,5.225,13.934c0.938,6.029-0.536,9.378-2.01,12.593l-1.072,2.412
	l-3.617-27.197c-1.474-0.803-2.814-1.742-4.02-2.679c-2.948-2.144-5.761-4.02-9.914-4.421c-1.876-0.133-3.751-0.268-5.761-0.268
	c-1.741,0-3.215,0.135-4.555,0.268c-0.804,0.134-6.296,2.278-7.369,3.35c2.68,2.144,5.762,4.019,8.708,5.761l1.34,0.803
	c3.082,1.875,6.297,3.885,9.111,6.431c6.296,5.493,9.914,13.665,10.985,24.786c0.536,5.895,1.072,12.728,0.134,19.427
	c-0.938,6.162-2.278,13.263-4.958,18.891l6.833-6.164c0.67-0.67,1.607-1.34,2.278-1.875l3.617-2.947l-4.823,7.234
	c-1.071,0.938-1.875,1.741-2.813,3.082c-0.938,1.339-2.278,2.41-3.349,3.215c-1.072,0.805-2.412,1.34-4.153,1.474
	c-0.804,1.072-1.608,2.01-2.546,2.813c-1.607,1.34-3.082,2.814-4.689,4.287c-2.009,1.875-4.019,3.885-6.162,5.627
	c0.67,0.269,1.607,0.671,3.081,1.206c0.938,0.401,1.875,0.804,2.144,0.804c3.618,1.072,6.699,1.607,9.646,1.475
	c3.216-0.135,5.761-1.877,8.307-3.618c1.474-1.072,2.948-2.009,4.689-2.813l7.502-28.402v5.225c0,5.092-0.402,7.368-0.804,9.914
	c-0.268,1.607-1.072,3.617-1.742,5.493c-0.402,0.938-0.804,1.876-0.938,2.68c-0.402,1.339-0.803,2.276-1.474,3.349
	C137.387,299.641,136.985,300.311,136.583,301.248L136.583,301.248z M158.02,287.717c0.401,1.475,0.804,2.68,1.339,4.287
	c0.268,0.535,0.402,1.206,0.67,1.742c0.536,1.607,1.339,3.482,2.277,5.359L158.02,287.717z M141.139,283.832l-2.278,8.707v-0.133
	c0.67-1.742,1.474-3.752,1.742-5.225C140.871,286.109,141.005,285.037,141.139,283.832z M128.411,284.233l-5.493,4.958
	c0.536-0.135,0.938-0.402,1.339-0.67c0.938-0.805,2.278-1.742,3.082-2.814C127.607,285.171,128.009,284.77,128.411,284.233z
	 M131.09,216.308l2.814,21.705c1.072-2.546,1.742-5.493,1.072-10.048C134.574,225.016,133.368,220.461,131.09,216.308
	L131.09,216.308z M166.862,295.086c-0.536-1.206-0.804-2.412-1.072-3.618l-0.268-0.937l-0.402-1.609c0-0.133-0.134-0.268-0.134-0.4
	c-0.402-1.072-0.938-2.01-1.34-2.814c-0.537-1.071-1.206-2.144-1.608-3.35c-1.607-4.957-2.68-9.11-2.68-13.934v-4.822l7.101,25.188
	c0.134,0.402,0.268,0.938,0.402,1.34l1.206,4.421L166.862,295.086z M150.919,251.275l3.751-8.306c0.402-1.34,0.67-3.082,0.938-4.823
	c0.268-1.875,0.536-3.618,0.938-4.689c1.206-3.216,4.02-5.226,6.564-7.101c1.34-0.938,2.546-1.875,3.618-2.947l3.484-3.35
	l-13.264,23.312c-0.536,1.741-2.948,6.431-4.421,7.101L150.919,251.275z M164.852,226.892c-0.268,0.268-0.67,0.402-0.938,0.67
	c-2.545,1.875-4.957,3.617-6.163,6.565c-0.402,0.938-0.67,2.679-0.938,4.421c-0.134,1.206-0.401,2.412-0.67,3.483L164.852,226.892z
	 M169.14,223.409l0.938-3.082c0.803-2.412,3.081-8.172,7.369-8.44l1.607-0.134L169.14,223.409z M175.436,214.164
	c-0.803,0.536-1.607,1.474-2.277,2.546L175.436,214.164z M195.8,163.388c-7.369,0.134-15.407,0.536-22.24,4.287
	c-3.215,1.742-5.493,4.02-8.44,6.164c-1.474,1.072-3.082,2.143-4.823,2.947c-1.741,0.938-3.885,1.071-5.493,2.009l0.804,2.01
	c2.278-0.67,2.68-0.938,4.958-1.071c2.277-0.134,4.421-0.537,6.833-0.269c2.277,0.269,4.957,0.134,7.235,0.804
	c2.545,0.67,5.895,0.67,8.44,0.938c5.225,0.402,11.656-0.803,16.881-1.875c3.752-0.804,8.843-2.411,11.656-5.225
	c1.206-1.206,1.876-2.411,3.35-3.751c1.34-1.34,3.484-3.885,4.555-5.359c1.072-1.474,1.875-2.412,2.947-4.019
	c0.805-1.34,2.412-4.287,2.412-6.029C217.773,162.852,205.447,163.253,195.8,163.388z"/>
<text transform="matrix(1 0 0 1 201.1855 284.6563)" fill="#333333" font-family="'Roboto-Bold'" font-size="83.2009">CORE</text>
</svg>
