<?xml version="1.0" encoding="UTF-8" standalone="no"?>
<svg
   xmlns:dc="http://purl.org/dc/elements/1.1/"
   xmlns:cc="http://creativecommons.org/ns#"
   xmlns:rdf="http://www.w3.org/1999/02/22-rdf-syntax-ns#"
   xmlns:svg="http://www.w3.org/2000/svg"
   xmlns="http://www.w3.org/2000/svg"
   xmlns:sodipodi="http://sodipodi.sourceforge.net/DTD/sodipodi-0.dtd"
   xmlns:inkscape="http://www.inkscape.org/namespaces/inkscape"
   version="1.1"
   id="Layer_1"
   x="0px"
   y="0px"
   width="800"
   viewBox="0 0 800 800"
   enable-background="new 0 0 2048 2048"
   xml:space="preserve"
   sodipodi:docname="Overseas Workers Welfare Administration (OWWA) - Philippines.svg"
   inkscape:version="0.92.5 (2060ec1f9f, 2020-04-08)"
   height="800"><title
   id="title2448">Overseas Workers Welfare Administration (OWWA)</title><metadata
   id="metadata126"><rdf:RDF><cc:Work
       rdf:about=""><dc:format>image/svg+xml</dc:format><dc:type
         rdf:resource="http://purl.org/dc/dcmitype/StillImage" /><dc:title>Overseas Workers Welfare Administration (OWWA)</dc:title><dc:source>Overseas Workers Welfare Administration (OWWA)</dc:source><dc:publisher><cc:Agent><dc:title>Overseas Workers Welfare Administration (OWWA)</dc:title></cc:Agent></dc:publisher><dc:description>Overseas Workers Welfare Administration (OWWA) seal</dc:description></cc:Work></rdf:RDF></metadata><defs
   id="defs124" /><sodipodi:namedview
   pagecolor="#ffffff"
   bordercolor="#000000"
   borderopacity="0.25"
   objecttolerance="10"
   gridtolerance="10"
   guidetolerance="10"
   inkscape:pageopacity="0"
   inkscape:pageshadow="2"
   inkscape:window-width="1920"
   inkscape:window-height="1057"
   id="namedview122"
   showgrid="false"
   inkscape:snap-bbox="true"
   inkscape:bbox-paths="true"
   inkscape:bbox-nodes="true"
   inkscape:snap-bbox-edge-midpoints="true"
   inkscape:snap-bbox-midpoints="true"
   inkscape:snap-intersection-paths="true"
   inkscape:snap-smooth-nodes="true"
   inkscape:snap-midpoints="true"
   inkscape:snap-object-midpoints="true"
   inkscape:snap-center="true"
   inkscape:zoom="0.65945994"
   inkscape:cx="624.7528"
   inkscape:cy="558.87166"
   inkscape:window-x="1912"
   inkscape:window-y="-8"
   inkscape:window-maximized="1"
   inkscape:current-layer="Layer_1"
   fit-margin-top="0"
   fit-margin-left="0"
   fit-margin-right="0"
   fit-margin-bottom="0" />


























<g
   id="g2442"
   transform="matrix(0.31620553,0,0,0.31620553,74.074928,68.35729)"><circle
     transform="scale(1,-1)"
     r="1265"
     cy="-1048.8201"
     cx="1030.738"
     id="path1347-7"
     style="opacity:1;vector-effect:none;fill:#0038a8;fill-opacity:1;fill-rule:nonzero;stroke:none;stroke-width:63.25;stroke-linecap:butt;stroke-linejoin:miter;stroke-miterlimit:4;stroke-dasharray:none;stroke-dashoffset:0;stroke-opacity:1" /><circle
     r="1000"
     cy="1048.8201"
     cx="1030.738"
     id="path1347"
     style="opacity:1;vector-effect:none;fill:#ffffff;fill-opacity:1;fill-rule:nonzero;stroke:#ce1126;stroke-width:50;stroke-linecap:butt;stroke-linejoin:miter;stroke-miterlimit:4;stroke-dasharray:none;stroke-dashoffset:0;stroke-opacity:1" /><g
     id="text1261"
     style="font-style:normal;font-variant:normal;font-weight:bold;font-stretch:normal;font-size:283.96075439px;line-height:1.25;font-family:'Swis721 BT';-inkscape-font-specification:'Swis721 BT Bold';font-variant-ligatures:normal;font-variant-caps:normal;font-variant-numeric:normal;font-feature-settings:normal;text-align:start;letter-spacing:20px;writing-mode:lr-tb;text-anchor:start;opacity:1;vector-effect:none;fill:#0038a8;fill-opacity:1;fill-rule:nonzero;stroke:none;stroke-width:26.02973557;stroke-linecap:butt;stroke-linejoin:miter;stroke-miterlimit:4;stroke-dasharray:none;stroke-dashoffset:0;stroke-opacity:1"
     aria-label="OWWA"><path
       id="path1263"
       style="letter-spacing:35px;stroke-width:26.02973557"
       d="m 561.46856,1731.3741 q 0,33.6926 14.97449,52.4107 14.97449,18.5795 41.87312,18.5795 27.17593,0 42.28908,-18.5795 15.11314,-18.7181 15.11314,-52.4107 0,-33.6926 -15.11314,-52.2721 -15.11315,-18.7181 -42.28908,-18.7181 -26.89863,0 -41.87312,18.5794 -14.97449,18.5795 -14.97449,52.4108 z m -42.84369,0 q 0,-49.499 26.89863,-78.4775 27.03728,-29.117 72.79267,-29.117 45.7554,0 72.79267,29.117 27.17594,29.1171 27.17594,78.4775 0,49.3603 -27.17594,78.4774 -27.03727,29.1171 -72.79267,29.1171 -45.75539,0 -72.79267,-29.1171 -26.89863,-29.1171 -26.89863,-78.4774 z"
       inkscape:connector-curvature="0" /><path
       id="path1265"
       style="letter-spacing:35px;stroke-width:26.02973557"
       d="m 826.21612,1833.2838 -58.51144,-204.2354 h 43.53695 l 34.94049,144.0601 29.53302,-144.0601 h 44.78483 l 29.53303,144.0601 34.94048,-144.0601 h 43.12102 l -58.37282,204.2354 h -40.07063 l -31.61282,-156.4002 -31.75147,156.4002 z"
       inkscape:connector-curvature="0" /><path
       id="path1267"
       style="letter-spacing:35px;stroke-width:26.02973557"
       d="m 1126.3201,1833.2838 -58.5115,-204.2354 h 43.537 l 34.9405,144.0601 29.533,-144.0601 h 44.7848 l 29.533,144.0601 34.9405,-144.0601 h 43.121 l -58.3728,204.2354 h -40.0706 l -31.6128,-156.4002 -31.7515,156.4002 z"
       inkscape:connector-curvature="0" /><path
       id="path1269"
       style="letter-spacing:35px;stroke-width:26.02973557"
       d="m 1458.0368,1669.9509 -28.2851,86.9353 h 56.709 z m -24.4028,-40.9025 h 48.5284 l 73.6246,204.2354 h -44.0916 l -13.8652,-42.0118 h -79.1707 l -13.4493,42.0118 h -44.2303 z"
       inkscape:connector-curvature="0" /></g><g
     style="fill:#fcd116;fill-opacity:1"
     id="g1257"><path
       sodipodi:type="star"
       style="opacity:1;vector-effect:none;fill:#fcd116;fill-opacity:1;fill-rule:nonzero;stroke:none;stroke-width:5.5;stroke-linecap:butt;stroke-linejoin:miter;stroke-miterlimit:4;stroke-dasharray:none;stroke-dashoffset:0;stroke-opacity:1"
       id="path1216-4"
       sodipodi:sides="5"
       sodipodi:cx="1025.795"
       sodipodi:cy="174.98109"
       sodipodi:r1="78.78904"
       sodipodi:r2="37.959446"
       sodipodi:arg1="0.89871213"
       sodipodi:arg2="1.5436044"
       inkscape:flatsided="false"
       inkscape:rounded="0"
       inkscape:randomized="0"
       d="m 1074.8505,236.63554 -48.0234,-23.70903 -44.50994,27.76141 7.70858,-52.9995 -40.157,-33.75273 52.78756,-9.04645 19.6916,-48.62174 24.9159,47.40848 52.3271,3.70284 -37.3887,38.3465 z"
       inkscape:transform-center-x="0.038866834"
       inkscape:transform-center-y="-7.4867075"
       transform="rotate(2.4161242,-25083.539,16570.419)" /><path
       sodipodi:type="star"
       style="opacity:1;vector-effect:none;fill:#fcd116;fill-opacity:1;fill-rule:nonzero;stroke:none;stroke-width:5.5;stroke-linecap:butt;stroke-linejoin:miter;stroke-miterlimit:4;stroke-dasharray:none;stroke-dashoffset:0;stroke-opacity:1"
       id="path1216-6"
       sodipodi:sides="5"
       sodipodi:cx="1025.795"
       sodipodi:cy="174.98109"
       sodipodi:r1="78.78904"
       sodipodi:r2="37.959446"
       sodipodi:arg1="0.89871213"
       sodipodi:arg2="1.5436044"
       inkscape:flatsided="false"
       inkscape:rounded="0"
       inkscape:randomized="0"
       d="m 1074.8505,236.63554 -48.0234,-23.70903 -44.50994,27.76141 7.70858,-52.9995 -40.157,-33.75273 52.78756,-9.04645 19.6916,-48.62174 24.9159,47.40848 52.3271,3.70284 -37.3887,38.3465 z"
       inkscape:transform-center-x="0.038866834"
       inkscape:transform-center-y="-7.4867075"
       transform="rotate(2.4161242,-25752.787,-15169.683)" /><path
       sodipodi:type="star"
       style="opacity:1;vector-effect:none;fill:#fcd116;fill-opacity:1;fill-rule:nonzero;stroke:none;stroke-width:5.5;stroke-linecap:butt;stroke-linejoin:miter;stroke-miterlimit:4;stroke-dasharray:none;stroke-dashoffset:0;stroke-opacity:1"
       id="path1216"
       sodipodi:sides="5"
       sodipodi:cx="1025.795"
       sodipodi:cy="174.98109"
       sodipodi:r1="78.78904"
       sodipodi:r2="37.959446"
       sodipodi:arg1="0.89871213"
       sodipodi:arg2="1.5436044"
       inkscape:flatsided="false"
       inkscape:rounded="0"
       inkscape:randomized="0"
       d="m 1074.8505,236.63554 -48.0234,-23.70903 -44.50994,27.76141 7.70858,-52.9995 -40.157,-33.75273 52.78756,-9.04645 19.6916,-48.62174 24.9159,47.40848 52.3271,3.70284 -37.3887,38.3465 z"
       inkscape:transform-center-x="0.038866834"
       inkscape:transform-center-y="-7.4867075"
       transform="rotate(2.4161242,1099.5903,147.38003)" /></g><g
     style="fill:#ce1126;fill-opacity:1"
     id="g1201"><path
       style="opacity:1;fill:#ce1126;fill-opacity:1;stroke:none"
       d="m 928.45422,1447.7375 c 64.76777,7.0748 129.15078,7.6625 193.52378,1.1747 61.8584,-6.2346 122.3919,-18.9098 181.4373,-38.562 61.6228,-20.5097 119.9983,-47.8565 174.5045,-83.1859 17.8698,-11.5826 34.926,-24.4204 52.3461,-36.696 2.0038,-1.4119 3.9539,-2.8998 6.8155,-3.5833 -5.5646,7.4977 -11.0068,15.0897 -16.7145,22.4769 -28.913,37.42 -61.1221,71.711 -97.2529,102.2792 -46.4798,39.3244 -97.5264,71.2888 -153.453,95.4068 -50.9283,21.9625 -103.8987,36.5572 -158.8417,44.0826 -41.9024,5.7393 -83.955,7.4136 -126.14633,4.5414 -42.32037,-2.8813 -84.02514,-9.5998 -125.0249,-20.6352 -59.76038,-16.0844 -116.11505,-40.0498 -168.67779,-72.7529 -60.32093,-37.53 -112.30945,-84.2273 -154.62915,-141.4545 -4.54316,-6.1435 -8.83027,-12.4763 -12.48603,-19.7176 1.80561,1.1497 3.63458,2.2644 5.41364,3.454 67.03381,44.8305 139.20868,79.0094 215.86944,103.7672 58.336,18.8397 117.97364,31.844 178.91016,38.7709 1.32397,0.1505 2.63965,0.3753 4.40588,0.6337 z"
       id="path75"
       inkscape:connector-curvature="0" /><path
       style="opacity:1;fill:#ce1126;fill-opacity:1;stroke:none"
       d="m 1379.4819,621.49145 c 17.096,-16.32214 36.937,-27.8095 57.9191,-37.40557 21.126,-9.66175 43.0313,-16.80091 66.1294,-20.35047 12.1124,-1.86139 20.3752,0.0791 28.3113,11.38593 37.4991,53.42621 67.0906,110.6286 87.1428,172.75073 0.7097,2.19898 1.276,4.44427 1.8204,6.35657 -70.6943,-11.14765 -138.9901,-2.23108 -205.546,22.9704 -1.3237,-11.20612 -2.3794,-23.13214 -4.193,-34.94184 -5.8033,-37.78894 -17.3054,-73.82947 -34.0342,-108.20062 -3.318,-6.81696 -3.3706,-6.79132 2.4502,-12.56513 z"
       id="path77"
       inkscape:connector-curvature="0" /><path
       style="opacity:1;fill:#ce1126;fill-opacity:1;stroke:none"
       d="m 474.70465,644.66931 c 14.89426,-27.6391 31.5687,-53.70697 50.3205,-78.41821 1.31738,-1.73609 4.32989,-3.03516 6.5827,-3.07929 20.14917,-0.39471 39.22144,5.03742 57.93341,11.72767 27.46576,9.82025 53.20404,22.88696 75.60144,41.91363 11.0083,9.35162 11.08655,9.38361 4.97009,22.52429 -20.03576,43.04498 -31.98614,88.17047 -35.10266,135.59131 -0.0625,0.95044 -0.33954,1.88678 -0.60828,3.31879 -32.22741,-15.50177 -66.50616,-21.61481 -101.27917,-25.63672 -34.66876,-4.00983 -69.32086,-6.04523 -104.74051,2.82751 11.90405,-38.9176 27.27121,-75.40124 46.32248,-110.76898 z"
       id="path79"
       inkscape:connector-curvature="0" /><path
       style="opacity:1;fill:#ce1126;fill-opacity:1;stroke:none"
       d="m 1292.417,520.58179 c -16.7461,-13.17813 -33.1825,-26.18265 -49.7732,-38.98731 -2.4777,-1.9122 -4.0778,-3.3414 -3.1016,-6.83551 9.5772,-34.28146 27.1695,-63.09759 56.6966,-83.871 0.2726,-0.19171 0.5454,-0.3833 0.8137,-0.58096 6.8433,-5.04099 13.0557,-5.78668 21.34,-1.26142 53.2607,29.09345 101.8761,64.32886 145.029,107.04166 1.0382,1.02762 1.9854,2.14725 2.7608,2.99075 -50.0232,13.98725 -88.5578,43.12677 -117.4775,86.41535 -16.1218,-23.35553 -34.8204,-45.11695 -56.2878,-64.91156 z"
       id="path85"
       inkscape:connector-curvature="0" /><path
       style="opacity:1;fill:#ce1126;fill-opacity:1;stroke:none"
       d="m 696.92395,580.06067 c -12.80536,-21.05597 -30.64972,-36.71631 -50.02454,-50.75257 -14.73883,-10.67767 -30.38562,-19.86328 -47.82086,-25.5408 -5.03137,-1.63833 -10.24688,-2.71115 -16.16949,-4.24872 2.30871,-2.3486 4.29681,-4.45526 6.37323,-6.47097 43.76861,-42.48874 92.65533,-77.89887 146.68908,-106.22775 3.44971,-1.80863 6.27387,-2.01816 9.80689,-0.27927 15.99359,7.8717 27.96844,20.21817 38.35602,34.25509 11.88592,16.06174 20.90167,33.57419 25.78576,53.0943 0.89423,3.5738 0.25837,5.59128 -3.02258,7.75858 -40.43982,26.71347 -74.71948,59.83838 -102.70392,99.44293 -1.11017,1.57111 -2.35479,3.04706 -3.83319,4.94873 -1.31378,-2.25079 -2.30548,-3.94983 -3.4364,-5.97955 z"
       id="path87"
       inkscape:connector-curvature="0" /><path
       style="opacity:1;fill:#ce1126;fill-opacity:1;stroke:none"
       d="m 1098.4862,320.664 c 48.7593,5.7215 95.7306,16.98377 141.6227,33.73508 -26.0549,28.36618 -40.0402,61.85296 -44.1007,100.24414 -6.4364,-2.79596 -12.9052,-5.70047 -19.4463,-8.43189 -39.9867,-16.69763 -81.646,-26.33688 -124.8568,-29.18863 -3.5886,-0.23684 -4.8959,-1.65496 -5.7299,-4.75729 -5.2965,-19.70331 -4.7561,-39.54364 -1.5151,-59.44342 1.751,-10.75033 4.9365,-21.02411 10.4975,-30.4949 2.1419,-3.6478 4.6311,-5.28787 9.2653,-4.7201 11.2257,1.3754 22.5376,2.04609 34.2633,3.05701 z"
       id="path91"
       inkscape:connector-curvature="0" /><path
       style="opacity:1;fill:#ce1126;fill-opacity:1;stroke:none"
       d="m 955.97778,320.11517 c 10.40766,-0.86273 20.37854,-1.53485 30.31037,-2.57858 3.66589,-0.38525 5.94287,0.79648 7.83777,3.80951 6.23918,9.92117 9.40388,20.88226 11.22178,32.31372 2.9,18.2366 3.209,36.47305 -0.5118,54.63443 -1.7025,8.31027 -1.8784,8.11588 -10.18765,8.80167 -41.94763,3.46212 -82.52246,12.72155 -121.38702,29.07183 -6.56183,2.7605 -13.0636,5.66343 -19.65155,8.52591 -3.78882,-38.15948 -17.88068,-71.4609 -43.92847,-100.27771 47.12952,-17.37481 95.79902,-28.68039 146.29657,-34.30078 z"
       id="path93"
       inkscape:connector-curvature="0" /><path
       style="opacity:1;fill:#ce1126;fill-opacity:1;stroke:none"
       d="m 1611.6121,960.53375 c -20.6003,-44.75342 -51.1184,-80.07147 -94.0715,-104.07373 -30.4382,-17.00879 -63.4071,-25.72058 -97.8758,-29.36676 -1.1493,-0.12158 -2.2969,-0.26025 -3.6432,-1.11651 3.1014,-0.86994 6.1709,-1.883 9.3093,-2.58814 40.6482,-9.13342 81.6918,-14.25647 123.4489,-12.01269 27.7107,1.48901 54.9676,5.80285 81.6645,13.40704 1.6184,0.461 3.7654,2.34497 4.0177,3.84418 6.2862,37.37689 10.3601,75.0158 7.8743,112.91406 -1.7852,27.2132 -5.5037,54.30017 -8.4111,81.4379 -0.1931,1.8028 -0.8241,3.5585 -1.3424,5.7146 -1.7469,-7.9691 -3.1764,-15.6069 -5.1336,-23.1072 -1.974,-7.56453 -4.2119,-15.08406 -6.8114,-22.45497 -2.6539,-7.52515 -5.8882,-14.84564 -9.0257,-22.59778 z"
       id="path95"
       inkscape:connector-curvature="0" /><path
       style="opacity:1;fill:#ce1126;fill-opacity:1;stroke:none"
       d="m 407.60175,893.38074 c 2.45858,-21.46942 4.98422,-42.461 7.25216,-63.48041 0.37476,-3.47333 1.90082,-4.66382 5.03717,-5.51276 44.85398,-12.14081 90.3928,-16.06097 136.66806,-11.89691 24.93781,2.2439 49.51703,6.50836 73.81745,12.46881 1.09381,0.26825 2.14196,0.72315 3.27337,1.44721 -54.63354,5.46887 -104.09582,23.12652 -144.42755,61.56329 -40.05945,38.17743 -61.96841,85.91205 -71.74682,139.75563 -6.00724,-9.6143 -12.50385,-97.48177 -9.87384,-134.34486 z"
       id="path97"
       inkscape:connector-curvature="0" /></g><path
     id="path105"
     d="M 915.23071,806.99963 C 855.14496,831.49524 809.16504,871.84381 775.46338,928.11279 770.32117,917.8645 765.1684,908.7735 761.06543,899.2312 c -32.14331,-74.75452 -32.00635,-149.79626 0.79639,-224.03088 27.93762,-63.22431 73.25116,-110.93537 135.94372,-140.63629 81.08008,-38.41196 163.65596,-39.36554 245.80956,-3.99976 60.0366,25.84479 104.9909,69.17096 135.6471,126.90271 28.7943,54.22498 38.8942,111.89343 29.747,172.71454 -5.1362,34.15002 -16.9305,66.01098 -34.0165,95.96185 -0.2479,0.43445 -0.3725,0.93927 -0.5208,1.32404 -7.6142,-10.90503 -14.3518,-21.59729 -22.1083,-31.49066 -44.2949,-56.49811 -102.0223,-91.19391 -172.3847,-104.80506 -51.8656,-10.03308 -102.79811,-5.80334 -152.72896,11.20685 -3.93829,1.34174 -7.77216,2.98969 -12.01923,4.62109 m 386.80009,-84.39544 c -3.6316,-11.78882 -6.6221,-23.82642 -11.0741,-35.29676 -4.5089,-11.61682 -9.9466,-22.95575 -15.9389,-33.88952 -5.3263,-9.71845 -11.7724,-18.85217 -18.1112,-27.97504 -3.3639,-4.84137 -8.1517,-8.73755 -11.2435,-13.71466 -7.1659,-11.53564 -16.8568,-20.74957 -26.9579,-29.35461 -12.2832,-10.46411 -25.0668,-20.49897 -38.5104,-29.39502 -11.7655,-7.78583 -24.5963,-14.0326 -37.242,-20.39112 -7.6453,-3.84417 -15.6775,-7.09137 -23.8195,-9.7326 -10.5254,-3.41443 -21.194,-6.75665 -32.0585,-8.65607 -11.6053,-2.02887 -23.3537,-3.57931 -35.1052,-4.93246 -20.9579,-2.4133 -41.6311,-0.63416 -62.39093,0.19314 -7.99908,0.31876 -15.86847,3.13214 -23.86895,4.32654 -18.00324,2.68756 -34.89173,9.021 -51.76606,15.41406 -1.08044,0.40937 -1.66094,2.13806 -2.68395,3.5409 -4.17768,-2.57917 -7.11426,1.28326 -10.66309,3.12213 -7.47602,3.87396 -15.18006,7.34033 -22.46912,11.53283 -6.45123,3.71058 -12.73053,7.83698 -18.6192,12.38398 -11.70166,9.03552 -23.55237,17.97333 -34.43896,27.93762 -7.95661,7.28253 -14.74494,15.9201 -21.54865,24.36108 -6.61114,8.20197 -12.9187,16.698 -18.72723,25.48297 -5.16522,7.81202 -9.79273,16.02881 -14.05878,24.37305 -4.88873,9.56232 -10.16394,19.12909 -13.39636,29.29041 -5.33875,16.78259 -9.67072,33.93426 -13.45563,51.14404 -2.25891,10.27087 -3.61597,20.94427 -3.66888,31.44537 -0.0689,13.66761 -0.31043,27.31873 1.13452,41.1145 1.28198,12.23926 3.02209,24.29938 5.81317,36.15235 2.9436,12.50079 6.90729,24.80102 11.12225,36.94702 2.29761,6.62097 5.93048,12.79718 9.16523,19.06873 2.71423,5.26257 5.7243,10.37262 8.6444,15.62396 2.11213,-3.11554 3.92017,-6.0697 6.00678,-8.81183 10.01282,-13.15814 19.65637,-26.63562 30.33136,-39.23706 6.28699,-7.42163 14.09973,-13.59802 21.50708,-20.00995 7.25616,-6.28094 14.64136,-12.46234 22.39307,-18.10626 6.73815,-4.90589 13.88922,-9.31995 21.17767,-13.37671 10.6604,-5.93384 21.35504,-11.92841 32.50915,-16.81494 9.27448,-4.06299 19.21637,-6.61554 28.89392,-9.74011 5.05017,-1.63044 10.09162,-3.42572 15.27234,-4.4834 8.89472,-1.81586 17.86945,-3.29419 26.85865,-4.5777 9.65344,-1.37842 19.3483,-3.1944 29.0497,-3.35785 20.6363,-0.34784 41.3547,-1.15796 61.7304,3.75928 14.7787,3.56653 29.8812,5.95874 44.4299,10.25958 11.8012,3.48871 22.9817,9.06641 34.4655,13.64801 2.1216,0.84644 4.5999,0.97577 6.5274,2.09894 6.0996,3.5542 11.9113,7.60382 18.0226,11.13617 19.6149,11.33734 37.5031,24.84234 53.4219,41.02411 12.576,12.78387 24.7372,25.84637 34.4246,41.04492 3.4054,5.34247 7.2426,10.40948 11.1059,15.92078 0.6989,-0.98444 1.2327,-1.74567 1.7759,-2.50007 3.7621,-5.22406 5.1195,-11.59509 8.4647,-17.13672 4.0457,-6.7019 7.0144,-14.25103 9.2863,-21.78418 4.2953,-14.24352 8.3866,-28.60894 11.3763,-43.16735 2.506,-12.20215 4.1047,-24.71204 4.7256,-37.15448 1.3123,-26.29718 -0.8593,-52.37549 -7.8193,-78.75 z"
     inkscape:connector-curvature="0"
     style="opacity:1;fill:#3c22b7;stroke:none" /><path
     id="path107"
     d="m 1594.7629,1105.6245 c -0.9571,-1.1003 -2.602,-2.6453 -2.6019,-4.1899 0,-12.3798 -2.5961,-24.3158 -5.9213,-36.1056 -3.5888,-12.7251 -6.5247,-25.7675 -11.5673,-37.9152 -6.0461,-14.565 -13.7262,-28.48912 -21.2729,-42.37889 -4.076,-7.50201 -8.908,-14.69971 -14.1826,-21.41968 -8.451,-10.76745 -17.5749,-21.00561 -26.375,-31.50061 -13.6053,-16.22552 -30.2259,-29.19244 -46.7268,-42.13446 -8.7311,-6.84802 -18.9875,-11.7821 -28.6836,-17.3573 -5.8329,-3.354 -12.006,-6.11541 -17.8481,-9.45477 -3.8896,-2.22321 -4.947,-0.22766 -5.8175,3.00024 -2.5015,9.27375 -4.679,18.66199 -7.7378,27.75147 -4.0015,11.89081 -8.4673,23.64417 -13.2215,35.25684 -3.6817,8.99353 -7.8087,17.83923 -12.3086,26.45251 -3.4903,6.68079 -7.7215,12.99365 -11.8751,19.30432 -6.511,9.8927 -12.7519,20.02033 -20.001,29.35433 -7.5417,9.7109 -15.9226,18.8056 -24.3438,27.788 -8.7134,9.294 -17.4949,18.6055 -27.022,27.033 -9.7234,8.601 -20.3706,16.1607 -30.6551,24.1223 -2.6125,2.0224 -5.3243,3.9313 -8.0933,5.7341 -10.7943,7.0282 -21.413,14.3626 -32.5098,20.8801 -11.7784,6.9181 -23.8467,13.4059 -36.1264,19.3876 -9.2698,4.5155 -18.9996,8.1286 -28.656,11.7971 -10.9037,4.1422 -21.7837,8.4986 -32.9811,11.6808 -17.3043,4.9179 -34.8452,9.0167 -52.3339,13.2654 -8.8259,2.144 -17.7305,3.9933 -26.651,5.7078 -5.2554,1.0101 -10.5942,1.6855 -15.9265,2.1746 -9.2332,0.847 -18.4934,1.3956 -27.7357,2.1502 -2.6205,0.2142 -5.218,0.7093 -8.23391,1.1329 2.14881,5.903 7.19541,8.0393 11.72781,10.2913 6.6321,3.295 13.6723,5.7591 20.4317,8.8137 2.1912,0.9902 3.8667,3.207 6.0868,4.0337 10.8521,4.0413 21.6006,8.6368 32.7874,11.4243 10.9003,2.7158 21.2041,7.3021 32.2517,9.3792 8.6101,1.6187 17.183,3.4445 25.8131,4.945 11.8461,2.0596 23.7007,4.1136 35.6086,5.7575 8.0276,1.1083 16.149,1.5636 24.2365,2.2079 16.667,1.3275 33.3269,2.8134 50.0173,3.7365 5.135,0.2842 10.3485,-1.403 15.5452,-1.5595 8.6527,-0.2609 17.3208,-0.01 25.9824,0.015 5.089,0.014 10.1782,0.023 15.2671,0 2.1635,-0.01 4.3328,-0.014 6.489,-0.1678 18.0004,-1.2821 36.0093,-2.4671 53.9912,-3.9735 6.5733,-0.5506 13.0711,-1.957 19.6197,-2.8551 13.0172,-1.7854 26.1502,-2.9369 39.041,-5.3772 13.6311,-2.5804 27.0389,-6.3431 40.5387,-9.6133 8.4806,-2.0544 17.02,-3.91 25.4033,-6.3078 6.6431,-1.9 13.2056,-4.2056 19.5974,-6.8335 11.8491,-4.8715 23.8738,-9.482 35.2167,-15.3729 11.2742,-5.8555 21.9315,-12.9496 32.6036,-19.8937 6.3118,-4.107 12.1278,-8.9756 18.508,-13.3236 -12.738,14.082 -28.668,24.0315 -45.4224,32.7138 -35.3298,18.3089 -73.0812,29.5962 -111.8755,37.5601 -91.9086,18.8674 -184.4239,21.6119 -277.3273,9.0454 -42.1991,-5.7081 -83.4948,-15.3806 -122.5676,-32.9659 -13.8008,-6.2113 -26.97827,-13.5371 -40.1867,-23.2365 8.49505,-0.6415 15.843,-1.1499 23.1827,-1.758 65.5704,-5.4312 128.2534,-21.7083 187.354,-50.8102 62.8976,-30.9716 116.3887,-73.507 157.5505,-130.71731 28.8761,-40.13458 48.4585,-84.42096 58.4513,-134.13086 50.9821,21.54236 91.1157,55.95416 124.0437,99.23261 33.2402,43.68916 53.2529,92.71586 57.4426,148.22136 z"
     inkscape:connector-curvature="0"
     style="opacity:1;fill:#3d24b8;stroke:none" /><path
     id="path111"
     d="m 1584.929,1152.3054 c 1.2468,-2.552 2.2453,-5.8205 4.4112,-7.8319 3.9811,-3.6973 4.4932,-8.2381 4.6233,-13.0187 0.2068,-7.5986 0.2101,-15.2027 0.5533,-23.132 0.3504,9.9501 0.9301,20.2596 0.2615,30.4874 -0.2123,3.2468 -3.6598,6.3404 -5.8063,9.3774 -1.0413,1.4738 -2.4968,2.6547 -4.043,4.1178 z"
     inkscape:connector-curvature="0"
     style="opacity:1;fill:#3d24b8;stroke:none" /><g
     style="fill:#0038a8;fill-opacity:1"
     id="g1206"><path
       style="opacity:1;fill:#0038a8;fill-opacity:1;stroke:none"
       d="m 656.93445,942.0235 c 29.49859,81.985 79.62317,148.6819 146.453,203.2328 68.24927,55.7098 145.92774,93.1917 230.06955,117.9345 61.4909,18.082 124.2943,28.3058 188.3296,31.1826 82.7058,3.7156 164.001,-4.7289 243.6663,-27.6678 1.0444,-0.3006 2.1234,-0.4814 3.6363,0.069 -5.7085,4.4895 -11.325,9.1021 -17.1399,13.4493 -55.4262,41.4375 -116.7397,71.01 -182.9201,90.8252 -78.9279,23.6318 -159.7064,32.5747 -241.8583,30.7633 -70.57269,-1.5561 -140.05371,-11.2411 -208.47327,-28.4709 -65.79657,-16.5695 -129.17859,-39.6438 -189.11993,-71.6628 -45.01996,-24.0485 -87.01404,-52.3823 -123.10901,-88.8216 -19.56235,-19.749 -36.65015,-41.393 -49.17725,-66.3446 -1.72745,-3.4407 -2.89239,-7.5089 -3.05188,-11.3395 -2.23999,-53.797 11.26001,-103.6507 38.88785,-149.62023 28.78555,-47.89557 67.27365,-86.20325 115.80417,-114.13263 7.48199,-4.30597 15.531,-7.62952 23.33844,-11.36395 1.01477,-0.48529 2.15436,-0.7096 3.74701,-1.21796 4.5672,28.38287 11.14465,55.99475 20.91742,83.18567 z"
       id="path71"
       inkscape:connector-curvature="0" /><path
       style="opacity:1;fill:#0038a8;fill-opacity:1;stroke:none"
       d="m 1594.6884,1106.069 c 0.066,0.4278 0.1324,0.8556 -0.1134,1.9323 -0.4014,8.2508 -0.4047,15.8549 -0.6115,23.4535 -0.1301,4.7806 -0.6422,9.3214 -4.6233,13.0187 -2.1659,2.0114 -3.1644,5.2799 -4.6896,7.9815 0,0 -0.1174,0.075 -0.4958,-0.044 -6.4174,4.4069 -12.2334,9.2755 -18.5452,13.3825 -10.6721,6.9441 -21.3294,14.0382 -32.6036,19.8937 -11.3429,5.8909 -23.3676,10.5014 -35.2167,15.3729 -6.3918,2.6279 -12.9543,4.9335 -19.5974,6.8335 -8.3833,2.3978 -16.9227,4.2534 -25.4033,6.3078 -13.4998,3.2702 -26.9076,7.0329 -40.5387,9.6133 -12.8908,2.4403 -26.0238,3.5918 -39.041,5.3772 -6.5486,0.8981 -13.0464,2.3045 -19.6197,2.8551 -17.9819,1.5064 -35.9908,2.6914 -53.9912,3.9735 -2.1562,0.1536 -4.3255,0.1587 -6.489,0.1678 -5.0889,0.021 -10.1781,0.013 -15.2671,0 -8.6616,-0.024 -17.3297,-0.2762 -25.9824,-0.015 -5.1967,0.1565 -10.4102,1.8437 -15.5452,1.5595 -16.6904,-0.9231 -33.3503,-2.409 -50.0173,-3.7365 -8.0875,-0.6443 -16.2089,-1.0996 -24.2365,-2.2079 -11.9079,-1.6439 -23.7625,-3.6979 -35.6086,-5.7575 -8.6301,-1.5005 -17.203,-3.3263 -25.8131,-4.945 -11.0476,-2.0771 -21.3514,-6.6634 -32.2517,-9.3792 -11.1868,-2.7875 -21.9353,-7.383 -32.7874,-11.4243 -2.2201,-0.8267 -3.8956,-3.0435 -6.0868,-4.0337 -6.7594,-3.0546 -13.7996,-5.5187 -20.4317,-8.8137 -4.5324,-2.252 -9.579,-4.3883 -11.72781,-10.2913 3.01591,-0.4236 5.61341,-0.9187 8.23391,-1.1329 9.2423,-0.7546 18.5025,-1.3032 27.7357,-2.1502 5.3323,-0.4891 10.6711,-1.1645 15.9265,-2.1746 8.9205,-1.7145 17.8251,-3.5638 26.651,-5.7078 17.4887,-4.2487 35.0296,-8.3475 52.3339,-13.2654 11.1974,-3.1822 22.0774,-7.5386 32.9811,-11.6808 9.6564,-3.6685 19.3862,-7.2816 28.656,-11.7971 12.2797,-5.9817 24.348,-12.4695 36.1264,-19.3876 11.0968,-6.5175 21.7155,-13.8519 32.5098,-20.8801 2.769,-1.8028 5.4808,-3.7117 8.0933,-5.7341 10.2845,-7.9616 20.9317,-15.5213 30.6551,-24.1223 9.5271,-8.4275 18.3086,-17.739 27.022,-27.033 8.4212,-8.9824 16.8021,-18.0771 24.3438,-27.788 7.2491,-9.334 13.49,-19.46163 20.001,-29.35433 4.1536,-6.31067 8.3848,-12.62353 11.8751,-19.30432 4.4999,-8.61328 8.6269,-17.45898 12.3086,-26.45251 4.7542,-11.61267 9.22,-23.36603 13.2215,-35.25684 3.0588,-9.08948 5.2363,-18.47772 7.7378,-27.75147 0.8705,-3.2279 1.9279,-5.22345 5.8175,-3.00024 5.8421,3.33936 12.0152,6.10077 17.8481,9.45477 9.6961,5.5752 19.9525,10.50928 28.6836,17.3573 16.5009,12.94202 33.1215,25.90894 46.7268,42.13446 8.8001,10.495 17.924,20.73316 26.375,31.50061 5.2746,6.71997 10.1066,13.91767 14.1826,21.41968 7.5467,13.88977 15.2268,27.81389 21.2729,42.37889 5.0426,12.1477 7.9785,25.1901 11.5673,37.9152 3.3252,11.7898 5.9229,23.7258 5.9213,36.1056 -10e-5,1.5446 1.6448,3.0896 2.5274,4.6344 z"
       id="path73"
       inkscape:connector-curvature="0" /><path
       style="opacity:1;fill:#0038a8;fill-opacity:1;stroke:none"
       d="m 1302.0403,723.02405 c 6.9505,25.95465 9.1221,52.03296 7.8098,78.33014 -0.6209,12.44244 -2.2196,24.95233 -4.7256,37.15448 -2.9897,14.55841 -7.081,28.92383 -11.3763,43.16735 -2.2719,7.53315 -5.2406,15.08228 -9.2863,21.78418 -3.3452,5.54163 -4.7026,11.91266 -8.4647,17.13672 -0.5432,0.7544 -1.077,1.51563 -1.7759,2.50007 -3.8633,-5.5113 -7.7005,-10.57831 -11.1059,-15.92078 -9.6874,-15.19855 -21.8486,-28.26105 -34.4246,-41.04492 -15.9188,-16.18177 -33.807,-29.68677 -53.4219,-41.02411 -6.1113,-3.53235 -11.923,-7.58197 -18.0226,-11.13617 -1.9275,-1.12317 -4.4058,-1.2525 -6.5274,-2.09894 -11.4838,-4.5816 -22.6643,-10.1593 -34.4655,-13.64801 -14.5487,-4.30084 -29.6512,-6.69305 -44.4299,-10.25958 -20.3757,-4.91724 -41.0941,-4.10712 -61.7304,-3.75928 -9.7014,0.16345 -19.39626,1.97943 -29.0497,3.35785 -8.9892,1.28351 -17.96393,2.76184 -26.85865,4.5777 -5.18072,1.05768 -10.22217,2.85296 -15.27234,4.4834 -9.67755,3.12457 -19.61944,5.67712 -28.89392,9.74011 -11.15411,4.88653 -21.84875,10.8811 -32.50915,16.81494 -7.28845,4.05676 -14.43952,8.47082 -21.17767,13.37671 -7.75171,5.64392 -15.13691,11.82532 -22.39307,18.10626 -7.40735,6.41193 -15.22009,12.58832 -21.50708,20.00995 -10.67499,12.60144 -20.31854,26.07892 -30.33136,39.23706 -2.08661,2.74213 -3.89465,5.69629 -6.00678,8.81183 -2.9201,-5.25134 -5.93017,-10.36139 -8.6444,-15.62396 -3.23475,-6.27155 -6.86762,-12.44776 -9.16523,-19.06873 -4.21496,-12.146 -8.17865,-24.44623 -11.12225,-36.94702 -2.79108,-11.85297 -4.53119,-23.91309 -5.81317,-36.15235 -1.44495,-13.79577 -1.20343,-27.44689 -1.13452,-41.1145 0.0529,-10.5011 1.40997,-21.1745 3.66888,-31.44537 3.78491,-17.20978 8.11688,-34.36145 13.45563,-51.14404 3.23242,-10.16132 8.50763,-19.72809 13.39636,-29.29041 4.26605,-8.34424 8.89356,-16.56103 14.05878,-24.37305 5.80853,-8.78497 12.11609,-17.281 18.72723,-25.48297 6.80371,-8.44098 13.59204,-17.07855 21.54865,-24.36108 10.88659,-9.96429 22.7373,-18.9021 34.43896,-27.93762 5.88867,-4.547 12.16797,-8.6734 18.6192,-12.38398 7.28906,-4.1925 14.9931,-7.65887 22.46912,-11.53283 3.54883,-1.83887 6.48541,-5.7013 10.66309,-3.12213 1.02301,-1.40284 1.60351,-3.13153 2.68395,-3.5409 16.87433,-6.39306 33.76282,-12.7265 51.76606,-15.41406 8.00048,-1.1944 15.86987,-4.00778 23.86895,-4.32654 20.75983,-0.8273 41.43303,-2.60644 62.39093,-0.19314 11.7515,1.35315 23.4999,2.90359 35.1052,4.93246 10.8645,1.89942 21.5331,5.24164 32.0585,8.65607 8.142,2.64123 16.1742,5.88843 23.8195,9.7326 12.6457,6.35852 25.4765,12.60529 37.242,20.39112 13.4436,8.89605 26.2272,18.93091 38.5104,29.39502 10.1011,8.60504 19.792,17.81897 26.9579,29.35461 3.0918,4.97711 7.8796,8.87329 11.2435,13.71466 6.3388,9.12287 12.7849,18.25659 18.1112,27.97504 5.9923,10.93377 11.43,22.2727 15.9389,33.88952 4.452,11.47034 7.4425,23.50794 11.0836,35.71662 z"
       id="path115"
       inkscape:connector-curvature="0" /></g><circle
     transform="rotate(144.75775)"
     r="1072.5381"
     cy="-1451.3635"
     cx="-236.61833"
     id="path1347-76"
     style="opacity:1;vector-effect:none;fill:none;fill-opacity:1;fill-rule:nonzero;stroke:none;stroke-width:4.92392445;stroke-linecap:butt;stroke-linejoin:miter;stroke-miterlimit:4;stroke-dasharray:none;stroke-dashoffset:0;stroke-opacity:1" /><g
     id="text2186"
     style="font-style:normal;font-variant:normal;font-weight:normal;font-stretch:normal;font-size:146.66667175px;line-height:1.25;font-family:Gotham;-inkscape-font-specification:Gotham;font-variant-ligatures:normal;font-variant-caps:normal;font-variant-numeric:normal;font-feature-settings:normal;text-align:start;letter-spacing:3px;word-spacing:15px;writing-mode:lr-tb;text-anchor:start;opacity:1;vector-effect:none;fill:#000000;fill-opacity:1;fill-rule:nonzero;stroke:#ffffff;stroke-width:10;stroke-linecap:butt;stroke-linejoin:miter;stroke-miterlimit:4;stroke-dasharray:none;stroke-dashoffset:0;stroke-opacity:1"
     aria-label="OVERSEAS WORKERS WELFARE ADMINISTRATION"><path
       id="path2239"
       style="font-style:normal;font-variant:normal;font-weight:normal;font-stretch:normal;font-size:146.66667175px;font-family:Gotham;-inkscape-font-specification:Gotham;letter-spacing:20px;word-spacing:10px;fill:#ffffff;stroke:#ffffff;stroke-width:10;stroke-miterlimit:4;stroke-dasharray:none;stroke-opacity:1"
       d="m 48.90174,1598.6547 q -9.080543,5.6724 -15.145641,13.9574 -6.267193,8.2383 -8.71024,17.8922 -2.567438,9.7316 -1.046279,20.1948 1.443455,10.3388 7.659816,20.2901 6.216361,9.9513 15.076589,15.83 8.735837,5.9563 18.607499,7.9175 9.871662,1.9612 20.101786,0.067 10.105732,-1.8166 19.18628,-7.489 9.08054,-5.6725 15.34773,-13.9107 6.0651,-8.285 8.63254,-18.0166 2.44304,-9.6539 0.99959,-19.9927 -1.52116,-10.4633 -7.73752,-20.4146 -6.21636,-9.9512 -14.9522,-15.9076 -8.860227,-5.8787 -18.731889,-7.8398 -9.871662,-1.9612 -19.977395,-0.1446 -10.230123,1.8944 -19.310666,7.5668 z m 6.620552,10.0446 q 7.46346,-4.6622 15.687978,-6.1683 8.022422,-1.5529 15.671034,-0.1053 7.648611,1.4476 14.472536,6.0044 6.62183,4.51 11.2841,11.9735 4.66227,7.4634 5.76421,15.5946 1.02423,8.0067 -0.95195,15.6397 -1.97619,7.6329 -6.93711,14.3635 -5.03864,6.6061 -12.502097,11.2684 -7.46346,4.6623 -15.485882,6.2151 -8.224518,1.5061 -15.87313,0.059 -7.648611,-1.4476 -14.270439,-5.9576 -6.823923,-4.5568 -11.486194,-12.0202 -4.662271,-7.4635 -5.686504,-15.4702 -1.101937,-8.1312 0.874245,-15.7641 1.976182,-7.633 7.014815,-14.2391 4.960928,-6.7306 12.424388,-11.3929 z"
       inkscape:connector-curvature="0" /><path
       id="path2241"
       style="font-style:normal;font-variant:normal;font-weight:normal;font-stretch:normal;font-size:146.66667175px;font-family:Gotham;-inkscape-font-specification:Gotham;letter-spacing:20px;word-spacing:10px;fill:#ffffff;stroke:#ffffff;stroke-width:10;stroke-miterlimit:4;stroke-dasharray:none;stroke-opacity:1"
       d="m 44.860258,1506.1105 -64.955416,70.2577 5.415402,11.7156 75.334861,-83.4575 -4.307706,-9.3192 -112.381135,3.312 5.230786,11.3162 z"
       inkscape:connector-curvature="0" /><path
       id="path2243"
       style="font-style:normal;font-variant:normal;font-weight:normal;font-stretch:normal;font-size:146.66667175px;font-family:Gotham;-inkscape-font-specification:Gotham;letter-spacing:20px;word-spacing:10px;fill:#ffffff;stroke:#ffffff;stroke-width:10;stroke-miterlimit:4;stroke-dasharray:none;stroke-opacity:1"
       d="m -97.73395,1379.316 23.244101,70.4793 97.501001,-32.1559 -23.47378537,-71.1757 -10.02867463,3.3074 19.8447656,60.1721 -34.1253506,11.2545 -17.547917,-53.2077 -10.028675,3.3075 17.547918,53.2077 -33.289628,10.9789 -19.61508,-59.4756 z"
       inkscape:connector-curvature="0" /><path
       id="path2245"
       style="font-style:normal;font-variant:normal;font-weight:normal;font-stretch:normal;font-size:146.66667175px;font-family:Gotham;-inkscape-font-specification:Gotham;letter-spacing:20px;word-spacing:10px;fill:#ffffff;stroke:#ffffff;stroke-width:10;stroke-miterlimit:4;stroke-dasharray:none;stroke-opacity:1"
       d="m -28.843777,1221.3956 -34.659564,39.4029 q -2.227793,-5.679 -5.712707,-10.1982 -3.484915,-4.5192 -7.82047,-7.3638 -4.508977,-2.9584 -9.808957,-3.955 -5.443584,-0.9668 -11.762136,0.3452 -6.749359,1.4015 -11.669559,5.1195 -5.0638,3.7478 -7.95707,9.2918 -3.03688,5.5738 -3.78945,12.7705 -0.78239,7.053 0.94709,15.382 l 8.97544,43.2247 100.522429,-20.8732 -2.35568,-11.3446 -39.060143,8.1107 -5.963747,-28.7207 33.006941,-37.2622 z m -66.947525,29.6299 q 4.882517,-1.0138 9.177273,0.1915 4.264937,1.0618 7.709053,3.9417 3.300512,2.9098 5.720565,7.3505 2.420053,4.4407 3.582983,10.0413 l 6.411028,30.8747 -40.78338,8.4685 -6.44085,-31.0183 q -2.53459,-12.2063 1.37725,-20.059 3.76825,-7.8228 13.246078,-9.7909 z"
       inkscape:connector-curvature="0" /><path
       id="path2247"
       style="font-style:normal;font-variant:normal;font-weight:normal;font-stretch:normal;font-size:146.66667175px;font-family:Gotham;-inkscape-font-specification:Gotham;letter-spacing:20px;word-spacing:10px;fill:#ffffff;stroke:#ffffff;stroke-width:10;stroke-miterlimit:4;stroke-dasharray:none;stroke-opacity:1"
       d="m -111.66762,1178.8389 q -3.50482,0.3266 -6.70759,-0.8481 -3.21638,-1.3206 -5.6654,-3.8912 -2.46262,-2.7166 -4.14428,-6.5371 -1.69526,-3.9665 -2.15785,-8.9316 -0.7347,-7.8859 1.22725,-15.2865 1.94834,-7.5466 7.12304,-15.2465 l -9.53394,-5.8876 q -5.54477,8.4709 -7.82238,17.2266 -2.43724,8.6232 -1.38961,19.8679 0.68027,7.3017 3.44222,13.231 2.61591,5.943 6.83457,10.1163 4.07262,4.1869 9.41512,6.1933 5.34249,2.0064 11.47593,1.435 6.42551,-0.5986 10.908124,-3.0785 4.482619,-2.4799 7.592882,-7.0414 3.110263,-4.5615 4.994203,-11.2183 1.870335,-6.8028 2.952451,-15.7418 1.004109,-8.1951 2.426362,-13.4832 1.408647,-5.4341 3.473086,-8.5725 2.064438,-3.1383 4.876279,-4.5787 2.665807,-1.4268 6.316663,-1.7669 7.88585,-0.7347 13.290016,5.0958 5.390561,5.6844 6.356552,16.0528 0.993201,10.6605 -1.749714,19.165 -2.888948,8.5181 -9.442359,17.2302 l 9.136656,6.3666 q 7.466806,-9.9757 10.616986,-20.433 2.990541,-10.5898 1.847679,-22.8566 -0.707486,-7.5938 -3.350607,-13.8289 -2.643121,-6.235 -6.861782,-10.4083 -4.232267,-4.3194 -9.880433,-6.4446 -5.648166,-2.1252 -12.219707,-1.5129 -11.828775,1.102 -17.784443,9.9058 -5.969273,8.6577 -8.174321,26.0975 -0.963293,8.6332 -2.358335,14.2134 -1.541076,5.5937 -3.591908,8.8781 -2.19687,3.298 -5.00871,4.7384 -2.81184,1.4404 -6.4627,1.7805 z"
       inkscape:connector-curvature="0" /><path
       id="path2249"
       style="font-style:normal;font-variant:normal;font-weight:normal;font-stretch:normal;font-size:146.66667175px;font-family:Gotham;-inkscape-font-specification:Gotham;letter-spacing:20px;word-spacing:10px;fill:#ffffff;stroke:#ffffff;stroke-width:10;stroke-miterlimit:4;stroke-dasharray:none;stroke-opacity:1"
       d="m -143.72275,991.14099 -1.14205,74.20451 102.654516,1.5799 1.15333,-74.93775 -10.55875,-0.1625 -0.975026,63.35245 -35.92908,-0.5529 0.862176,-56.02006 -10.55875,-0.1625 -0.862176,56.02006 -35.04918,-0.5394 0.96374,-62.6193 z"
       inkscape:connector-curvature="0" /><path
       id="path2251"
       style="font-style:normal;font-variant:normal;font-weight:normal;font-stretch:normal;font-size:146.66667175px;font-family:Gotham;-inkscape-font-specification:Gotham;letter-spacing:20px;word-spacing:10px;fill:#ffffff;stroke:#ffffff;stroke-width:10;stroke-miterlimit:4;stroke-dasharray:none;stroke-opacity:1"
       d="m -133.96962,886.57026 -1.44221,10.75709 96.265918,60.11177 1.578641,-11.77464 -25.275092,-15.67092 7.425458,-55.38445 28.490842,-8.31447 1.656598,-12.35611 z m 67.627558,-8.83855 -6.217116,46.37176 -48.777362,-30.21628 z"
       inkscape:connector-curvature="0" /><path
       id="path2253"
       style="font-style:normal;font-variant:normal;font-weight:normal;font-stretch:normal;font-size:146.66667175px;font-family:Gotham;-inkscape-font-specification:Gotham;letter-spacing:20px;word-spacing:10px;fill:#ffffff;stroke:#ffffff;stroke-width:10;stroke-miterlimit:4;stroke-dasharray:none;stroke-opacity:1"
       d="m -89.364103,789.22909 q -3.411832,-0.86592 -6.036389,-3.04518 -2.588477,-2.32143 -4.035359,-5.56366 -1.410799,-3.38439 -1.716089,-7.54742 -0.26921,-4.30519 0.9575,-9.13861 1.9483,-7.67663 6.275077,-13.99302 4.362856,-6.45855 11.817145,-11.98119 l -7.012077,-8.7402 q -8.061166,6.1252 -13.139135,13.61279 -5.18406,7.30935 -7.96219,18.25564 -1.80398,7.10799 -1.18693,13.61989 0.47489,6.47582 3.05257,11.82084 2.43553,5.30894 6.79776,8.98844 4.362237,3.6795 10.332943,5.19485 6.255026,1.5875 11.30925,0.75181 5.054224,-0.83568 9.512366,-4.0924 4.458142,-3.25672 8.46236,-8.89839 4.040298,-5.78383 8.053152,-13.84438 3.690296,-7.38583 6.801159,-11.89238 3.146943,-4.64871 6.143091,-6.91463 2.996147,-2.26592 6.127978,-2.6816 2.989671,-0.45177 6.543662,0.45022 7.676623,1.9483 10.816467,9.2518 3.175925,7.16133 0.614271,17.25467 -2.633814,10.37765 -8.066106,17.47268 -5.574451,7.05895 -14.666815,13.07375 l 6.477359,9.05845 q 10.376118,-6.89952 16.846084,-15.69831 6.3638858,-8.97703 9.3945754,-20.91844 1.8761411,-7.3923 1.4734097,-14.15244 -0.4027313,-6.76014 -2.980414,-12.10516 -2.5416031,-5.48718 -7.1520771,-9.381 -4.610475,-3.89383 -11.00766,-5.51741 -11.514933,-2.92245 -20.074738,3.37883 -8.523725,6.15912 -16.441194,21.85373 -3.798535,7.8123 -6.981557,12.60318 -3.325182,4.75479 -6.35741,7.16287 -3.174386,2.372 -6.306217,2.78768 -3.13183,0.41569 -6.685822,-0.4863 z"
       inkscape:connector-curvature="0" /><path
       id="path2255"
       style="font-style:normal;font-variant:normal;font-weight:normal;font-stretch:normal;font-size:146.66667175px;font-family:Gotham;-inkscape-font-specification:Gotham;letter-spacing:20px;word-spacing:10px;fill:#ffffff;stroke:#ffffff;stroke-width:10;stroke-miterlimit:4;stroke-dasharray:none;stroke-opacity:1"
       d="m 37.716491,598.99712 -89.707814,-11.15093 -5.533353,11.33482 109.004511,12.41056 4.246526,-8.69882 -62.4446739,-61.98331 87.2160789,11.24021 4.310868,-8.83061 L 7.9747787,465.00835 2.63445,475.94777 66.605739,539.8188 -22.850944,527.48479 -27.03313,536.0518 Z"
       inkscape:connector-curvature="0" /><path
       id="path2257"
       style="font-style:normal;font-variant:normal;font-weight:normal;font-stretch:normal;font-size:146.66667175px;font-family:Gotham;-inkscape-font-specification:Gotham;letter-spacing:20px;word-spacing:10px;fill:#ffffff;stroke:#ffffff;stroke-width:10;stroke-miterlimit:4;stroke-dasharray:none;stroke-opacity:1"
       d="m 134.69253,368.28625 q -8.81139,-6.08212 -18.82339,-8.3594 -10.04937,-2.48129 -19.879751,-0.89072 -9.951081,1.50725 -18.950394,7.05754 -8.915997,5.42957 -15.581327,15.08589 -6.66533,9.65632 -8.543108,20.12228 -1.998482,10.38265 0.120835,20.22157 2.119318,9.83891 7.919549,18.47612 5.679526,8.55388 14.490917,14.63599 8.811391,6.08212 18.86077,8.56342 10.011989,2.27727 19.963069,0.77002 9.83038,-1.59058 18.74638,-7.02015 8.99931,-5.55028 15.66464,-15.2066 6.66533,-9.65632 8.66381,-20.03897 1.87778,-10.46596 -0.24154,-20.30488 -2.11932,-9.83891 -7.79884,-18.3928 -5.80023,-8.6372 -14.61162,-14.71931 z m -6.59056,10.06436 q 7.24224,4.99899 11.8899,11.94956 4.61028,6.74654 6.31833,14.34123 1.70806,7.5947 0.2351,15.66688 -1.51034,7.86817 -6.50934,15.11041 -4.999,7.24224 -12.02434,11.48186 -6.94202,4.11891 -14.73219,5.33561 -7.79017,1.2167 -15.93713,-0.6643 -8.063644,-2.0017 -15.305883,-7.0007 -7.242239,-4.99899 -11.852514,-11.74554 -4.647662,-6.95056 -6.355719,-14.54526 -1.708056,-7.59469 -0.197713,-15.46285 1.472957,-8.07219 6.471955,-15.31443 4.998997,-7.24224 11.94102,-11.36115 7.02534,-4.23962 14.815511,-5.45632 7.790173,-1.2167 15.853813,0.785 8.14696,1.881 15.3892,6.88 z"
       inkscape:connector-curvature="0" /><path
       id="path2259"
       style="font-style:normal;font-variant:normal;font-weight:normal;font-stretch:normal;font-size:146.66667175px;font-family:Gotham;-inkscape-font-specification:Gotham;letter-spacing:20px;word-spacing:10px;fill:#ffffff;stroke:#ffffff;stroke-width:10;stroke-miterlimit:4;stroke-dasharray:none;stroke-opacity:1"
       d="m 261.81732,299.64303 -52.29023,-4.42783 q 3.24039,-5.16857 4.80072,-10.65794 1.56033,-5.48937 1.26853,-10.6666 -0.30348,-5.38432 -2.6545,-10.23775 -2.4604,-4.95113 -7.27315,-9.25031 -5.1409,-4.5923 -11.05612,-6.33638 -6.0246,-1.84179 -12.20226,-0.87036 -6.28705,0.87372 -12.52006,4.54899 -6.13531,3.56588 -11.80241,9.90996 l -29.4103,32.92359 76.56648,68.39604 7.71898,-8.64107 -29.75155,-26.57675 19.54173,-21.87614 49.5864,4.37247 z m -63.63718,-36.19685 q 3.71894,3.3221 5.3043,7.49156 1.68306,4.06008 1.41629,8.54168 -0.37615,4.38389 -2.50673,8.97054 -2.13058,4.58665 -5.94122,8.8525 l -21.00736,23.51685 -31.06411,-27.74926 21.10507,-23.62623 q 8.30523,-9.29735 16.94462,-10.82303 8.53001,-1.62338 15.74914,4.82539 z"
       inkscape:connector-curvature="0" /><path
       id="path2261"
       style="font-style:normal;font-variant:normal;font-weight:normal;font-stretch:normal;font-size:146.66667175px;font-family:Gotham;-inkscape-font-specification:Gotham;letter-spacing:20px;word-spacing:10px;fill:#ffffff;stroke:#ffffff;stroke-width:10;stroke-miterlimit:4;stroke-dasharray:none;stroke-opacity:1"
       d="m 284.10451,200.17905 3.20685,-62.76886 -11.20298,9.91437 -3.52347,84.98455 -40.62948,-45.91027 -8.67682,7.67877 68.03979,76.88324 8.67682,-7.67878 -18.27354,-20.64864 1.68799,-31.06757 62.49583,11.08674 10.87349,-9.62278 z"
       inkscape:connector-curvature="0" /><path
       id="path2263"
       style="font-style:normal;font-variant:normal;font-weight:normal;font-stretch:normal;font-size:146.66667175px;font-family:Gotham;-inkscape-font-specification:Gotham;letter-spacing:20px;word-spacing:10px;fill:#ffffff;stroke:#ffffff;stroke-width:10;stroke-miterlimit:4;stroke-dasharray:none;stroke-opacity:1"
       d="m 389.09378,63.44304 -60.79111,42.5683 58.88894,84.09837 61.39182,-42.98893 -6.05715,-8.65012 -51.90071,36.3429 -20.61114,-29.43444 45.89369,-32.13654 -6.05715,-8.65011 -45.89368,32.13654 -20.10637,-28.71359 51.30001,-35.922261 z"
       inkscape:connector-curvature="0" /><path
       id="path2265"
       style="font-style:normal;font-variant:normal;font-weight:normal;font-stretch:normal;font-size:146.66667175px;font-family:Gotham;-inkscape-font-specification:Gotham;letter-spacing:20px;word-spacing:10px;fill:#ffffff;stroke:#ffffff;stroke-width:10;stroke-miterlimit:4;stroke-dasharray:none;stroke-opacity:1"
       d="M 560.16647,83.901291 512.44742,62.06631 q 4.79615,-3.769765 8.11944,-8.409115 3.32329,-4.63935 4.79791,-9.610708 1.5336,-5.170212 0.96069,-10.532562 -0.64285,-5.49127 -3.71998,-11.163727 -3.28694,-6.059215 -8.26501,-9.699328 Q 509.29246,8.8818372 503.14988,7.7088608 496.93736,6.406965 489.82912,7.7601098 482.8498,9.04332 475.37247,13.099541 l -38.80476,21.050384 48.95438,90.243635 10.18464,-5.52485 -19.02227,-35.0661 25.78389,-13.986967 45.19293,20.869327 z M 512.50173,28.331744 q 2.37778,4.383262 2.46115,8.843175 0.21228,4.389979 -1.55302,8.517885 -1.83524,3.998987 -5.39024,7.596031 -3.55499,3.597044 -8.58285,6.324503 L 471.71908,74.649327 451.85759,38.036195 479.7042,22.930271 q 10.95815,-5.94446 19.60496,-4.461377 8.57687,1.354164 13.19257,9.86285 z"
       inkscape:connector-curvature="0" /><path
       id="path2267"
       style="font-style:normal;font-variant:normal;font-weight:normal;font-stretch:normal;font-size:146.66667175px;font-family:Gotham;-inkscape-font-specification:Gotham;letter-spacing:20px;word-spacing:10px;fill:#ffffff;stroke:#ffffff;stroke-width:10;stroke-miterlimit:4;stroke-dasharray:none;stroke-opacity:1"
       d="m 577.05761,-7.6714321 q -1.32242,-3.2621479 -1.12031,-6.6675359 0.33803,-3.460488 2.09406,-6.546245 1.89194,-3.140858 5.06595,-5.851884 3.30993,-2.766127 7.93131,-4.639553 7.33983,-2.975441 14.99187,-3.228768 7.78795,-0.308427 16.6522,2.428549 l 2.89131,-10.825929 q -9.70917,-2.86924 -18.74981,-2.527775 -8.95982,0.150441 -19.42588,4.3932 -6.79614,2.755038 -11.67839,7.108113 -4.93735,4.217152 -7.71833,9.45927 -2.83609,5.106194 -3.21825,10.800207 -0.38217,5.6940121 1.93207,11.4027714 2.42443,5.9806049 6.09057,9.558725 3.66615,3.5781196 8.93033,5.2423456 5.26418,1.664226 12.1815,1.550481 7.05324,-0.168847 15.92492,-1.707896 8.13696,-1.399468 13.61057,-1.560998 5.60954,-0.21663 9.20961,0.85612 3.60006,1.07275 5.78946,3.3504 2.1343,2.141728 3.51182,5.539799 2.97544,7.339833 -1.05092,14.19462 -3.89043,6.799686 -13.54095,10.71184 -9.92237,4.022356 -18.85647,3.845851 -8.98919,-0.312428 -19.21999,-4.078028 l -3.46437,10.583463 q 11.70388,4.276253 22.62538,4.28014 11.00232,-0.187137 22.41983,-4.815602 7.06799,-2.86524 12.27719,-7.192593 5.20919,-4.327354 7.99018,-9.569471 2.91691,-5.297219 3.32479,-11.318177 0.40788,-6.020959 -2.07165,-12.137487 Q 647.92405,3.956771 637.77773,0.78996343 627.76734,-2.431945 610.43175,0.48085101 601.88702,2.0456214 596.14156,2.3173529 q -5.80055,0.1358087 -9.53655,-0.8818406 -3.79109,-1.15357218 -5.98049,-3.4312228 -2.1894,-2.2776507 -3.56691,-5.6757216 z"
       inkscape:connector-curvature="0" /><path
       id="path2269"
       style="font-style:normal;font-variant:normal;font-weight:normal;font-stretch:normal;font-size:146.66667175px;font-family:Gotham;-inkscape-font-specification:Gotham;letter-spacing:20px;word-spacing:10px;fill:#ffffff;stroke:#ffffff;stroke-width:10;stroke-miterlimit:4;stroke-dasharray:none;stroke-opacity:1"
       d="m 805.76242,-17.901441 -44.00225,-78.966049 -12.41426,2.232149 54.38638,95.2792064 9.52722,-1.7130446 13.11733,-87.0011738 42.45811,77.008414 9.67157,-1.739 17.78952,-108.256821 -11.9812,2.15429 -13.73847,89.348135 -42.89934,-79.462395 -9.38287,1.68709 z"
       inkscape:connector-curvature="0" /><path
       id="path2271"
       style="font-style:normal;font-variant:normal;font-weight:normal;font-stretch:normal;font-size:146.66667175px;font-family:Gotham;-inkscape-font-specification:Gotham;letter-spacing:20px;word-spacing:10px;fill:#ffffff;stroke:#ffffff;stroke-width:10;stroke-miterlimit:4;stroke-dasharray:none;stroke-opacity:1"
       d="m 1025.9951,-127.04704 -74.16049,2.79989 3.87336,102.593573 74.89333,-2.827547 -0.3984,-10.552482 -63.31492,2.390411 -1.35567,-35.907752 55.98679,-2.113744 -0.3984,-10.552482 -55.98679,2.113744 -1.32248,-35.028381 62.58207,-2.36274 z"
       inkscape:connector-curvature="0" /><path
       id="path2273"
       style="font-style:normal;font-variant:normal;font-weight:normal;font-stretch:normal;font-size:146.66667175px;font-family:Gotham;-inkscape-font-specification:Gotham;letter-spacing:20px;word-spacing:10px;fill:#ffffff;stroke:#ffffff;stroke-width:10;stroke-miterlimit:4;stroke-dasharray:none;stroke-opacity:1"
       d="m 1073.9436,-23.296659 69.2078,4.789501 0.7392,-10.68112 -57.6488,-3.989563 6.3489,-91.740579 -11.559,-0.79994 z"
       inkscape:connector-curvature="0" /><path
       id="path2275"
       style="font-style:normal;font-variant:normal;font-weight:normal;font-stretch:normal;font-size:146.66667175px;font-family:Gotham;-inkscape-font-specification:Gotham;letter-spacing:20px;word-spacing:10px;fill:#ffffff;stroke:#ffffff;stroke-width:10;stroke-miterlimit:4;stroke-dasharray:none;stroke-opacity:1"
       d="m 1274.5567,-101.61925 -72.6817,-12.64416 -17.5962,101.147499 11.4152,1.985863 7.6669,-44.071412 54.7642,9.527116 1.8099,-10.403743 -54.7642,-9.527116 6.2844,-36.124107 61.2665,10.658303 z"
       inkscape:connector-curvature="0" /><path
       id="path2277"
       style="font-style:normal;font-variant:normal;font-weight:normal;font-stretch:normal;font-size:146.66667175px;font-family:Gotham;-inkscape-font-specification:Gotham;letter-spacing:20px;word-spacing:10px;fill:#ffffff;stroke:#ffffff;stroke-width:10;stroke-miterlimit:4;stroke-dasharray:none;stroke-opacity:1"
       d="m 1363.0436,-79.195305 -10.4176,-3.044686 -73.9147,86.1229309 11.4029,3.3326977 19.2963,-22.6288146 53.6361,15.67602231 3.932,29.41764369 11.9661,3.497275 z m -1.4398,68.187485 -44.908,-13.125069 37.2129,-43.674391 z"
       inkscape:connector-curvature="0" /><path
       id="path2279"
       style="font-style:normal;font-variant:normal;font-weight:normal;font-stretch:normal;font-size:146.66667175px;font-family:Gotham;-inkscape-font-specification:Gotham;letter-spacing:20px;word-spacing:10px;fill:#ffffff;stroke:#ffffff;stroke-width:10;stroke-miterlimit:4;stroke-dasharray:none;stroke-opacity:1"
       d="m 1494.7773,80.745704 -12.5192,-50.962169 q 5.9332,1.418229 11.6333,1.141999 5.7001,-0.27623 10.5125,-2.207643 5.0048,-2.008669 8.8521,-5.787758 3.9049,-3.913964 6.4401,-9.848459 2.708,-6.33912 2.4698,-12.5014965 -0.1806,-6.2972514 -3.0758,-11.8402795 -2.8376,-5.677903 -8.3124,-10.40909 -5.34,-4.673569 -13.1627,-8.015434 l -40.5974,-17.343131 -40.3328,94.412423 10.6551,4.551851 15.6722,-36.68597 26.975,11.523675 11.7074,48.382499 z m 13.9559,-71.8688754 q -1.959,4.5857464 -5.4029,7.4207114 -3.3091,2.892583 -7.6409,4.072365 -4.2741,1.044907 -9.3011,0.492249 -5.0271,-0.552657 -10.2872,-2.799774 l -28.9981,-12.3879499 16.3636,-38.3044681 29.133,12.445568 q 11.4643,4.897562 15.6716,12.5959964 4.2648,7.56355952 0.462,16.4653022 z"
       inkscape:connector-curvature="0" /><path
       id="path2281"
       style="font-style:normal;font-variant:normal;font-weight:normal;font-stretch:normal;font-size:146.66667175px;font-family:Gotham;-inkscape-font-specification:Gotham;letter-spacing:20px;word-spacing:10px;fill:#ffffff;stroke:#ffffff;stroke-width:10;stroke-miterlimit:4;stroke-dasharray:none;stroke-opacity:1"
       d="m 1646.6151,47.136582 -64.4926,-36.719615 -50.7978,89.218943 65.1298,37.08246 5.2249,-9.17681 -55.0608,-31.349551 17.7792,-31.22663 48.6881,27.721132 5.2249,-9.176805 -48.688,-27.721133 17.3438,-30.461896 54.4236,30.986711 z"
       inkscape:connector-curvature="0" /><path
       id="path2283"
       style="font-style:normal;font-variant:normal;font-weight:normal;font-stretch:normal;font-size:146.66667175px;font-family:Gotham;-inkscape-font-specification:Gotham;letter-spacing:20px;word-spacing:10px;fill:#ffffff;stroke:#ffffff;stroke-width:10;stroke-miterlimit:4;stroke-dasharray:none;stroke-opacity:1"
       d="m 1797.0396,156.82801 -8.2656,-7.03375 -102.6425,48.42599 9.0475,7.69911 26.8554,-12.77494 42.557,36.21433 -8.4252,28.45831 9.4944,8.07931 z m -29.1623,61.6536 -35.6317,-30.32118 51.8048,-24.66812 z"
       inkscape:connector-curvature="0" /><path
       id="path2285"
       style="font-style:normal;font-variant:normal;font-weight:normal;font-stretch:normal;font-size:146.66667175px;font-family:Gotham;-inkscape-font-specification:Gotham;letter-spacing:20px;word-spacing:10px;fill:#ffffff;stroke:#ffffff;stroke-width:10;stroke-miterlimit:4;stroke-dasharray:none;stroke-opacity:1"
       d="m 1892.9869,326.186 q 8.0171,-7.31575 12.2816,-16.56805 4.2645,-9.25231 4.4135,-19.31579 0.2477,-9.95514 -3.7569,-20.00099 -3.7974,-10.03637 -11.904,-18.92025 l -24.0233,-26.32661 -75.838,69.20296 24.0233,26.32661 q 8.1067,8.88387 17.7544,13.58173 9.7466,4.8062 19.6828,5.46837 10.0351,0.77052 19.6381,-2.63143 9.7113,-3.50081 17.7285,-10.81655 z m -8.3233,-8.68616 q -6.3921,5.83282 -13.8852,8.50075 -7.3942,2.77627 -15.2678,2.41609 -7.6665,-0.35071 -15.2801,-4.12498 -7.6137,-3.77427 -14.1385,-10.9247 l -16.2133,-17.76775 60.0203,-54.7692 16.2133,17.76775 q 6.5248,7.15044 9.4799,15.17574 3.0633,7.92645 2.6043,15.69176 -0.2518,7.77479 -3.8,14.98352 -3.4492,7.31706 -9.7329,13.05102 z"
       inkscape:connector-curvature="0" /><path
       id="path2287"
       style="font-style:normal;font-variant:normal;font-weight:normal;font-stretch:normal;font-size:146.66667175px;font-family:Gotham;-inkscape-font-specification:Gotham;letter-spacing:20px;word-spacing:10px;fill:#ffffff;stroke:#ffffff;stroke-width:10;stroke-miterlimit:4;stroke-dasharray:none;stroke-opacity:1"
       d="m 2000.5888,419.18343 -68.2404,47.52727 6.622,9.50792 84.2473,-58.67565 -6.7058,-9.62827 -67.3497,1.33004 24.6003,-62.71024 -6.7058,-9.62827 -84.2473,58.67565 6.4543,9.26721 68.12,-47.44345 -23.6374,62.03966 0.3353,0.48141 z"
       inkscape:connector-curvature="0" /><path
       id="path2289"
       style="font-style:normal;font-variant:normal;font-weight:normal;font-stretch:normal;font-size:146.66667175px;font-family:Gotham;-inkscape-font-specification:Gotham;letter-spacing:20px;word-spacing:10px;fill:#ffffff;stroke:#ffffff;stroke-width:10;stroke-miterlimit:4;stroke-dasharray:none;stroke-opacity:1"
       d="m 2053.269,469.52904 -89.5747,50.16791 5.6618,10.10914 89.5747,-50.1679 z"
       inkscape:connector-curvature="0" /><path
       id="path2291"
       style="font-style:normal;font-variant:normal;font-weight:normal;font-stretch:normal;font-size:146.66667175px;font-family:Gotham;-inkscape-font-specification:Gotham;letter-spacing:20px;word-spacing:10px;fill:#ffffff;stroke:#ffffff;stroke-width:10;stroke-miterlimit:4;stroke-dasharray:none;stroke-opacity:1"
       d="m 2042.6293,634.56732 48.9399,-92.51154 -4.4058,-9.91888 -93.8272,41.67604 4.5844,10.321 76.9383,-34.17435 -50.0275,94.75995 3.7508,8.44445 93.8273,-41.67604 -4.5844,-10.321 z"
       inkscape:connector-curvature="0" /><path
       id="path2293"
       style="font-style:normal;font-variant:normal;font-weight:normal;font-stretch:normal;font-size:146.66667175px;font-family:Gotham;-inkscape-font-specification:Gotham;letter-spacing:20px;word-spacing:10px;fill:#ffffff;stroke:#ffffff;stroke-width:10;stroke-miterlimit:4;stroke-dasharray:none;stroke-opacity:1"
       d="m 2142.3769,667.50219 -97.2761,32.82999 3.7051,10.97831 97.2761,-32.83 z"
       inkscape:connector-curvature="0" /><path
       id="path2295"
       style="font-style:normal;font-variant:normal;font-weight:normal;font-stretch:normal;font-size:146.66667175px;font-family:Gotham;-inkscape-font-specification:Gotham;letter-spacing:20px;word-spacing:10px;fill:#ffffff;stroke:#ffffff;stroke-width:10;stroke-miterlimit:4;stroke-dasharray:none;stroke-opacity:1"
       d="m 2140.7729,749.17538 q 3.416,-0.84935 6.7589,-0.1692 3.3783,0.82248 6.1857,2.99597 2.8428,2.31581 5.0793,5.8403 2.2719,3.66682 3.4751,8.50614 1.9111,7.68598 1.0832,15.29731 -0.7926,7.75367 -4.7518,16.14357 l 10.3102,4.38855 q 4.2093,-9.20773 5.1457,-18.20623 1.1141,-8.89155 -1.6108,-19.8512 -1.7695,-7.11665 -5.3909,-12.56379 -3.479,-5.48253 -8.2767,-8.97473 -4.6555,-3.52758 -10.2387,-4.70861 -5.5833,-1.18102 -11.5613,0.30534 -6.2626,1.55714 -10.3219,4.68227 -4.0592,3.12513 -6.4488,8.10214 -2.3897,4.977 -3.2523,11.84128 -0.8271,7.00661 -0.554,16.00666 0.2384,8.25299 -0.3733,13.69471 -0.5763,5.58405 -2.1459,8.99694 -1.5695,3.4129 -4.133,5.25935 -2.4212,1.81107 -5.9796,2.69581 -7.686,1.91104 -13.9047,-3.04143 -6.1833,-4.81013 -8.696,-14.91577 -2.5834,-10.39031 -1.1493,-19.21031 1.5765,-8.85539 6.7468,-18.45319 l -9.9894,-4.92172 q -5.8835,10.98419 -7.4269,21.79608 -1.3657,10.91883 1.607,22.8748 1.8402,7.40132 5.39,13.16852 3.5498,5.76719 8.3476,9.25939 4.8331,3.63453 10.7364,4.88711 5.9034,1.25258 12.3084,-0.33995 11.5289,-2.86656 16.0944,-12.46513 4.6009,-9.45624 4.161,-27.02933 -0.3446,-8.67999 0.1963,-14.40638 0.6833,-5.76177 2.2174,-9.317 1.6765,-3.59062 4.24,-5.43707 2.5636,-1.84646 6.1219,-2.7312 z"
       inkscape:connector-curvature="0" /><path
       id="path2297"
       style="font-style:normal;font-variant:normal;font-weight:normal;font-stretch:normal;font-size:146.66667175px;font-family:Gotham;-inkscape-font-specification:Gotham;letter-spacing:20px;word-spacing:10px;fill:#ffffff;stroke:#ffffff;stroke-width:10;stroke-miterlimit:4;stroke-dasharray:none;stroke-opacity:1"
       d="m 2184.8983,893.89724 4.7417,34.13894 10.6049,-1.47297 -11.0977,-79.89964 -10.6049,1.47297 4.7418,34.13893 -91.0856,12.65141 1.6142,11.62177 z"
       inkscape:connector-curvature="0" /><path
       id="path2299"
       style="font-style:normal;font-variant:normal;font-weight:normal;font-stretch:normal;font-size:146.66667175px;font-family:Gotham;-inkscape-font-specification:Gotham;letter-spacing:20px;word-spacing:10px;fill:#ffffff;stroke:#ffffff;stroke-width:10;stroke-miterlimit:4;stroke-dasharray:none;stroke-opacity:1"
       d="m 2104.1281,1067.2287 41.1082,-32.619 q 1.1835,5.9845 3.8101,11.0509 2.6267,5.0664 6.3879,8.636 3.9117,3.7123 8.9504,5.6346 5.1852,1.9185 11.6363,1.7498 6.891,-0.1802 12.3934,-2.9649 5.6491,-2.7886 9.4812,-7.7305 3.9788,-4.9457 5.9979,-11.8941 2.0229,-6.8019 1.8005,-15.3057 l -1.1538,-44.13156 -102.6316,2.68343 0.3028,11.58271 39.8797,-1.0427 0.7667,29.32332 -39.1015,30.8059 z m 71.1464,-17.2655 q -4.9849,0.1303 -8.9973,-1.8188 -4.0084,-1.8025 -6.8862,-5.2485 -2.7311,-3.4498 -4.3237,-8.2498 -1.5927,-4.8 -1.7422,-10.518 l -0.8242,-31.5226 41.6391,-1.08871 0.828,31.66921 q 0.3259,12.4624 -4.9188,19.4952 -5.098,7.029 -14.7747,7.282 z"
       inkscape:connector-curvature="0" /><path
       id="path2301"
       style="font-style:normal;font-variant:normal;font-weight:normal;font-stretch:normal;font-size:146.66667175px;font-family:Gotham;-inkscape-font-specification:Gotham;letter-spacing:20px;word-spacing:10px;fill:#ffffff;stroke:#ffffff;stroke-width:10;stroke-miterlimit:4;stroke-dasharray:none;stroke-opacity:1"
       d="m 2200.8026,1166.5562 1.0062,-10.8066 -98.6172,-56.1713 -1.1014,11.8288 25.8879,14.6364 -5.1805,55.6394 -28.1315,9.4594 -1.1558,12.4129 z m -67.215,11.565 4.3375,-46.5852 49.9589,28.2199 z"
       inkscape:connector-curvature="0" /><path
       id="path2303"
       style="font-style:normal;font-variant:normal;font-weight:normal;font-stretch:normal;font-size:146.66667175px;font-family:Gotham;-inkscape-font-specification:Gotham;letter-spacing:20px;word-spacing:10px;fill:#ffffff;stroke:#ffffff;stroke-width:10;stroke-miterlimit:4;stroke-dasharray:none;stroke-opacity:1"
       d="m 2170.6731,1286.7521 -6.9682,33.755 10.4856,2.1645 16.3085,-79.0009 -10.4856,-2.1646 -6.9682,33.755 -90.061,-18.5917 -2.3722,11.4911 z"
       inkscape:connector-curvature="0" /><path
       id="path2305"
       style="font-style:normal;font-variant:normal;font-weight:normal;font-stretch:normal;font-size:146.66667175px;font-family:Gotham;-inkscape-font-specification:Gotham;letter-spacing:20px;word-spacing:10px;fill:#ffffff;stroke:#ffffff;stroke-width:10;stroke-miterlimit:4;stroke-dasharray:none;stroke-opacity:1"
       d="m 2160.6853,1371.8791 -98.5718,-28.7062 -3.2397,11.1246 98.5718,28.7061 z"
       inkscape:connector-curvature="0" /><path
       id="path2307"
       style="font-style:normal;font-variant:normal;font-weight:normal;font-stretch:normal;font-size:146.66667175px;font-family:Gotham;-inkscape-font-specification:Gotham;letter-spacing:20px;word-spacing:10px;fill:#ffffff;stroke:#ffffff;stroke-width:10;stroke-miterlimit:4;stroke-dasharray:none;stroke-opacity:1"
       d="m 2055.1233,1514.4414 q 9.9427,3.972 20.2104,3.9674 10.3495,0.186 19.5806,-3.5493 9.3673,-3.681 16.9082,-11.0923 7.4865,-7.2752 11.8393,-18.1713 4.3528,-10.896 3.8578,-21.5176 -0.3587,-10.5671 -4.6115,-19.6891 -4.2528,-9.1219 -11.8274,-16.2542 -7.4384,-7.0778 -17.381,-11.0498 -9.9427,-3.9719 -20.2922,-4.1579 -10.2677,0 -19.635,3.6855 -9.2311,3.7353 -16.7176,11.0105 -7.5409,7.4113 -11.8937,18.3074 -4.3528,10.8961 -3.994,21.4632 0.495,10.6216 4.7477,19.7435 4.2528,9.1219 11.6912,16.1998 7.5746,7.1323 17.5172,11.1042 z m 4.1893,-11.2773 q -8.1721,-3.2646 -14.2481,-9.0085 -5.9943,-5.5533 -9.3473,-12.5786 -3.3531,-7.0252 -3.7108,-15.2229 -0.2759,-8.007 2.9887,-16.1791 3.2646,-8.172 9.1721,-13.8668 5.8531,-5.5586 13.1781,-8.4761 7.325,-2.9174 15.6863,-2.8939 8.3068,0.1597 16.4789,3.4243 8.172,3.2646 14.1663,8.8179 6.076,5.744 9.4291,12.7692 3.353,7.0252 3.629,15.0323 0.3577,8.1977 -2.9069,16.3697 -3.2646,8.1721 -9.1178,13.7307 -5.9075,5.6948 -13.2325,8.6122 -7.325,2.9175 -15.6318,2.7578 -8.3613,-0.024 -16.5333,-3.2882 z"
       inkscape:connector-curvature="0" /><path
       id="path2309"
       style="font-style:normal;font-variant:normal;font-weight:normal;font-stretch:normal;font-size:146.66667175px;font-family:Gotham;-inkscape-font-specification:Gotham;letter-spacing:20px;word-spacing:10px;fill:#ffffff;stroke:#ffffff;stroke-width:10;stroke-miterlimit:4;stroke-dasharray:none;stroke-opacity:1"
       d="m 1968.4552,1611.1429 103.397,-16.2042 5.3054,-9.4682 -89.564,-50.1869 -5.5206,9.8521 73.4426,41.1532 -105.849,16.6796 -4.5168,8.0607 89.5641,50.1869 5.5206,-9.8521 z"
       inkscape:connector-curvature="0" /></g><circle
     transform="matrix(-0.50751719,0.86164163,0.86164163,0.50751719,0,0)"
     r="1197.2468"
     cy="1420.421"
     cx="380.58978"
     id="path1347-76-7"
     style="opacity:1;vector-effect:none;fill:none;fill-opacity:1;fill-rule:nonzero;stroke:none;stroke-width:5.49645042;stroke-linecap:butt;stroke-linejoin:miter;stroke-miterlimit:4;stroke-dasharray:none;stroke-dashoffset:0;stroke-opacity:1" /><g
     id="text2208"
     style="font-style:normal;font-variant:normal;font-weight:normal;font-stretch:normal;font-size:146.66667175px;line-height:1.25;font-family:Gotham;-inkscape-font-specification:Gotham;font-variant-ligatures:normal;font-variant-caps:normal;font-variant-numeric:normal;font-feature-settings:normal;text-align:start;letter-spacing:35px;writing-mode:lr-tb;text-anchor:start;opacity:1;vector-effect:none;fill:#ffffff;fill-opacity:1;fill-rule:nonzero;stroke:#ffffff;stroke-width:10;stroke-linecap:butt;stroke-linejoin:miter;stroke-miterlimit:4;stroke-dasharray:none;stroke-dashoffset:0;stroke-opacity:1"
     aria-label="PHILIPPINES"><path
       id="path2312"
       style="letter-spacing:35px"
       d="m 536.20326,2062.73 q 3.59884,-6.7242 3.97948,-13.3409 0.57915,-6.6768 -2.00889,-12.7198 -2.38953,-6.1031 -7.68764,-11.434 -5.09958,-5.391 -12.72893,-9.4743 l -33.87945,-18.1326 -48.44589,90.5177 10.21556,5.4674 17.09448,-31.9398 21.98285,11.7655 q 7.24141,3.8756 14.67587,5.5257 7.50367,1.5208 14.29522,0.3315 6.92086,-1.1201 12.74166,-5.1579 5.8208,-4.0378 9.76568,-11.4085 z m -10.5525,-5.1488 q -2.42229,4.5259 -6.23969,7.307 -3.61888,2.721 -8.43434,3.6371 -4.61694,0.856 -10.03342,-0.213 -5.28717,-0.9999 -10.84754,-3.9759 l -22.37079,-11.973 21.3162,-39.8278 22.88802,12.2499 q 10.99143,5.8827 14.88716,14.4555 4.09424,8.5126 -1.1656,18.3402 z"
       inkscape:connector-curvature="0" /><path
       id="path2314"
       style="letter-spacing:35px"
       d="m 637.04565,2130.858 -16.90921,42.9944 10.78273,4.2407 37.57601,-95.5431 -10.78273,-4.2408 -16.69448,42.4485 -55.14204,-21.6867 16.69449,-42.4485 -10.78273,-4.2407 -37.576,95.5431 10.78272,4.2407 16.9092,-42.9944 z"
       inkscape:connector-curvature="0" /><path
       id="path2316"
       style="letter-spacing:35px"
       d="m 721.50994,2098.8321 -28.47895,98.6377 11.13196,3.214 28.47896,-98.6377 z"
       inkscape:connector-curvature="0" /><path
       id="path2318"
       style="letter-spacing:35px"
       d="m 767.13928,2217.0975 68.04364,13.5175 2.08621,-10.5014 -56.67906,-11.2598 17.91851,-90.1974 -11.36459,-2.2577 z"
       inkscape:connector-curvature="0" /><path
       id="path2320"
       style="letter-spacing:35px"
       d="m 903.5767,2136.0044 -11.38818,102.0331 11.51517,1.2852 11.38817,-102.0331 z"
       inkscape:connector-curvature="0" /><path
       id="path2322"
       style="letter-spacing:35px"
       d="m 1047.0016,2176.79 q 0.1769,-7.6246 -2.4695,-13.7009 -2.4964,-6.2196 -7.5331,-10.4443 -4.8867,-4.3678 -12.0204,-6.7339 -6.9837,-2.5093 -15.6347,-2.71 l -38.41633,-0.8913 -2.38132,102.639 11.58355,0.2688 0.84026,-36.217 24.92664,0.5784 q 8.2111,0.1905 15.5901,-1.6922 7.3824,-2.0293 12.9063,-6.1557 5.6704,-4.1229 9.0425,-10.353 3.3721,-6.2301 3.566,-14.5879 z m -11.7404,0.1677 q -0.119,5.132 -2.2705,9.3366 -2.0014,4.0613 -5.8851,7.052 -3.7337,2.8475 -9.0497,4.3379 -5.1694,1.4939 -11.4744,1.3476 l -25.3665,-0.5885 1.04778,-45.1612 25.95302,0.6021 q 12.4633,0.2892 19.8086,6.1811 7.4954,5.7488 7.2368,16.8924 z"
       inkscape:connector-curvature="0" /><path
       id="path2324"
       style="letter-spacing:35px"
       d="m 1171.9165,2168.0397 q -0.6695,-7.5972 -3.9733,-13.3427 -3.1705,-5.9045 -8.6445,-9.5447 -5.3408,-3.7992 -12.6929,-5.3598 -7.2188,-1.7197 -15.8387,-0.9601 l -38.2783,3.3732 9.0121,102.2703 11.542,-1.0171 -3.18,-36.0868 24.8371,-2.1887 q 8.1816,-0.7209 15.3064,-3.4101 7.1119,-2.8352 12.1442,-7.5485 5.1785,-4.7261 7.8391,-11.2917 2.6606,-6.5656 1.9268,-14.8933 z m -11.6495,1.4683 q 0.4506,5.1135 -1.2214,9.5307 -1.5388,4.2581 -5.0671,7.661 -3.395,3.2439 -8.513,5.3144 -4.9719,2.0578 -11.2542,2.6114 l -25.2754,2.2273 -3.9654,-44.999 25.8598,-2.2788 q 12.4186,-1.0943 20.3718,3.947 8.0865,4.8823 9.0649,15.986 z"
       inkscape:connector-curvature="0" /><path
       id="path2326"
       style="letter-spacing:35px"
       d="m 1216.5377,2127.5344 17.9665,101.0824 11.4078,-2.0277 -17.9664,-101.0824 z"
       inkscape:connector-curvature="0" /><path
       id="path2328"
       style="letter-spacing:35px"
       d="m 1377.0801,2174.0243 -84.3604,-61.9421 -10.4565,2.9079 27.5073,98.913 10.8804,-3.0258 -22.5559,-81.1087 86.4255,63.3469 8.9022,-2.4757 -27.5073,-98.913 -10.8804,3.0258 z"
       inkscape:connector-curvature="0" /><path
       id="path2330"
       style="letter-spacing:35px"
       d="m 1483.3748,2046.2197 -68.6451,28.204 39.0174,94.9636 69.3234,-28.4827 -4.0132,-9.7677 -58.6061,24.0794 -13.6561,-33.2373 51.823,-21.2924 -4.0132,-9.7677 -51.823,21.2924 -13.3217,-32.4233 57.9278,-23.8006 z"
       inkscape:connector-curvature="0" /><path
       id="path2332"
       style="letter-spacing:35px"
       d="m 1546.5435,2043.536 q -1.6857,-3.0901 -1.8731,-6.4964 -0.059,-3.4764 1.3341,-6.7423 1.5216,-3.336 4.3658,-6.3912 2.9731,-3.1254 7.3507,-5.5135 6.9528,-3.7928 14.5261,-4.9168 7.702,-1.1942 16.8205,0.5144 l 1.6383,-11.085 q -9.973,-1.7437 -18.9158,-0.3738 -8.8842,1.1709 -18.7984,6.5791 -6.4377,3.5119 -10.7919,8.3931 -4.4244,4.7526 -6.5896,10.2775 -2.2355,5.3963 -1.9661,11.0967 0.2695,5.7005 3.2194,11.1082 3.0904,5.6652 7.1406,8.8021 4.0501,3.1368 9.4697,4.1901 5.4196,1.0532 12.2789,0.1516 6.988,-0.9718 15.6264,-3.5122 7.9243,-2.3179 13.3438,-3.1024 5.5483,-0.8547 9.2472,-0.1994 3.6989,0.6554 6.1337,2.6686 2.3645,1.8845 4.1204,5.1033 3.7928,6.9528 0.5742,14.2219 -3.0899,7.1989 -12.2316,12.1857 -9.3991,5.1273 -18.2951,5.9704 -8.9662,0.7144 -19.5595,-1.8603 l -2.2353,10.9094 q 12.1151,2.9141 22.9658,1.6729 10.9093,-1.4402 21.7247,-7.3401 6.6953,-3.6523 11.3772,-8.5453 4.6819,-4.893 6.8471,-10.4179 2.2941,-5.5953 2.0129,-11.6235 -0.2812,-6.0282 -3.4418,-11.8222 -5.6892,-10.4291 -16.1304,-12.4186 -10.3124,-2.0597 -27.203,2.8104 -8.3106,2.5286 -13.9876,3.4536 -5.7473,0.7962 -9.5749,0.2111 -3.8979,-0.7139 -6.3327,-2.7271 -2.4348,-2.0132 -4.1907,-5.2321 z"
       inkscape:connector-curvature="0" /></g><circle
     r="22.5"
     cy="1881.4426"
     cx="245.40968"
     id="path2213"
     style="opacity:1;vector-effect:none;fill:#ffffff;fill-opacity:1;fill-rule:nonzero;stroke:none;stroke-width:12.90247726;stroke-linecap:butt;stroke-linejoin:miter;stroke-miterlimit:4;stroke-dasharray:none;stroke-dashoffset:0;stroke-opacity:1" /><circle
     r="22.5"
     cy="1881.4426"
     cx="1808.5"
     id="path2213-7"
     style="opacity:1;vector-effect:none;fill:#ffffff;fill-opacity:1;fill-rule:nonzero;stroke:none;stroke-width:12.90247726;stroke-linecap:butt;stroke-linejoin:miter;stroke-miterlimit:4;stroke-dasharray:none;stroke-dashoffset:0;stroke-opacity:1" /></g></svg>